<svg xmlns:rdf="http://www.w3.org/1999/02/22-rdf-syntax-ns#" xmlns="http://www.w3.org/2000/svg" xmlns:cc="http://creativecommons.org/ns#" xmlns:dc="http://purl.org/dc/elements/1.1/" height="539.99997" width="779.99999" version="1.1"><rect id="backgroundrect" width="100%" height="100%" x="0" y="0" fill="none" stroke="none"/>

<g class="currentLayer" style=""><title>Layer 1</title><g id="layer1" class="selected" fill="#ffffff" fill-opacity="1">
<path id="path4140" d="m16.199000000000012,0 l3.801,3.8008 l3.801,-3.8008 h-7.602 zm40,0 l3.801,3.8008 l3.801,-3.8008 h-7.602 zm40,0 l3.801,3.8008 l3.8,-3.8008 h-7.601 zm40.001,0 l3.8,3.8008 l3.8,-3.8008 h-7.6 zm40,0 l3.8,3.8008 l3.8,-3.8008 h-7.6 zm40,0 l3.8,3.8008 l3.8,-3.8008 h-7.6 zm40,0 l3.8,3.8008 l3.8,-3.8008 h-7.6 zm40,0 l3.8,3.8008 l3.8,-3.8008 h-7.6 zm40,0 l3.8,3.8008 l3.8,-3.8008 h-7.6 zm40,0 l3.8,3.8008 l3.8,-3.8008 h-7.6 zm40,0 l3.8,3.8008 l3.8,-3.8008 h-7.6 zm40,0 l3.8,3.8008 l3.8,-3.8008 h-7.6 zm40,0 l3.8,3.8008 l3.8,-3.8008 h-7.6 zm40,0 l3.8,3.8008 l3.8,-3.8008 h-7.6 zm40,0 l3.8,3.8008 l3.8,-3.8008 h-7.6 zm40,0 l3.8,3.8008 l3.8,-3.8008 h-7.6 zm40,0 l3.8,3.8008 l3.8,-3.8008 h-7.6 zm40,0 l3.8,3.8008 l3.8,-3.8008 h-7.6 zm40,0 l3.8,3.8008 l3.8,-3.8008 h-7.6 zm40,0 l3.8,3.8008 v-3.8008 h-3.8 zm-776.2,15.6 v8.8 l4.4004,-4.4 l-4.4004,-4.4 zm40,0 l-4.4,4.4 l4.4,4.4 l4.4,-4.4 l-4.4,-4.4 zm40,0 l-4.4,4.4 l4.4,4.4 l4.4,-4.4 l-4.4,-4.4 zm40,0 l-4.4,4.4 l4.4,4.4 l4.4,-4.4 l-4.4,-4.4 zm40,0 l-4.4,4.4 l4.4,4.4 l4.4,-4.4 l-4.4,-4.4 zm40,0 l-4.4,4.4 l4.4,4.4 l4.4,-4.4 l-4.4,-4.4 zm40,0 l-4.4,4.4 l4.4,4.4 l4.4,-4.4 l-4.4,-4.4 zm40,0 l-4.4,4.4 l4.4,4.4 l4.4,-4.4 l-4.4,-4.4 zm40,0 l-4.4,4.4 l4.4,4.4 l4.4,-4.4 l-4.4,-4.4 zm40,0 l-4.4,4.4 l4.4,4.4 l4.4,-4.4 l-4.4,-4.4 zm40,0 l-4.4,4.4 l4.4,4.4 l4.4,-4.4 l-4.4,-4.4 zm40,0 l-4.4,4.4 l4.4,4.4 l4.4,-4.4 l-4.4,-4.4 zm40,0 l-4.4,4.4 l4.4,4.4 l4.4,-4.4 l-4.4,-4.4 zm40,0 l-4.4,4.4 l4.4,4.4 l4.4,-4.4 l-4.4,-4.4 zm40,0 l-4.4,4.4 l4.4,4.4 l4.4,-4.4 l-4.4,-4.4 zm40,0 l-4.4,4.4 l4.4,4.4 l4.4,-4.4 l-4.4,-4.4 zm40,0 l-4.4,4.4 l4.4,4.4 l4.4,-4.4 l-4.4,-4.4 zm40,0 l-4.4,4.4 l4.4,4.4 l4.4,-4.4 l-4.4,-4.4 zm40,0 l-4.4,4.4 l4.4,4.4 l4.4,-4.4 l-4.4,-4.4 zm40,0 l-4.4,4.4 l4.4,4.4 l4.4,-4.4 l-4.4,-4.4 zm-740,19.4 l-5,5 l5,5 l5,-5 l-5,-5 zm40,0 l-5,5 l5,5 l5,-5 l-5,-5 zm40,0 l-5,5 l5,5 l5,-5 l-5,-5 zm40,0 l-5,5 l5,5 l5,-5 l-5,-5 zm40,0 l-5,5 l5,5 l5,-5 l-5,-5 zm40,0 l-5,5 l5,5 l5,-5 l-5,-5 zm40,0 l-5,5 l5,5 l5,-5 l-5,-5 zm40,0 l-5,5 l5,5 l5,-5 l-5,-5 zm40,0 l-5,5 l5,5 l5,-5 l-5,-5 zm40,0 l-5,5 l5,5 l5,-5 l-5,-5 zm40,0 l-5,5 l5,5 l5,-5 l-5,-5 zm40,0 l-5,5 l5,5 l5,-5 l-5,-5 zm40,0 l-5,5 l5,5 l5,-5 l-5,-5 zm40,0 l-5,5 l5,5 l5,-5 l-5,-5 zm40,0 l-5,5 l5,5 l5,-5 l-5,-5 zm40,0 l-5,5 l5,5 l5,-5 l-5,-5 zm40,0 l-5,5 l5,5 l5,-5 l-5,-5 zm40,0 l-5,5 l5,5 l5,-5 l-5,-5 zm40,0 l-5,5 l5,5 l5,-5 l-5,-5 zm40,0 l-5,5 l5,5 v-10 zm-780,19.4 v11.2 l5.5996000000000015,-5.6 l-5.5996000000000015,-5.6 zm40,0 l-5.6,5.6 l5.6,5.6 l5.6,-5.6 l-5.6,-5.6 zm40,0 l-5.6,5.6 l5.6,5.6 l5.6,-5.6 l-5.6,-5.6 zm40,0 l-5.6,5.6 l5.6,5.6 l5.6,-5.6 l-5.6,-5.6 zm40,0 l-5.6,5.6 l5.6,5.6 l5.6,-5.6 l-5.6,-5.6 zm40,0 l-5.6,5.6 l5.6,5.6 l5.6,-5.6 l-5.6,-5.6 zm40,0 l-5.6,5.6 l5.6,5.6 l5.6,-5.6 l-5.6,-5.6 zm40,0 l-5.6,5.6 l5.6,5.6 l5.6,-5.6 l-5.6,-5.6 zm40,0 l-5.6,5.6 l5.6,5.6 l5.6,-5.6 l-5.6,-5.6 zm40,0 l-5.6,5.6 l5.6,5.6 l5.6,-5.6 l-5.6,-5.6 zm40,0 l-5.6,5.6 l5.6,5.6 l5.6,-5.6 l-5.6,-5.6 zm40,0 l-5.6,5.6 l5.6,5.6 l5.6,-5.6 l-5.6,-5.6 zm40,0 l-5.6,5.6 l5.6,5.6 l5.6,-5.6 l-5.6,-5.6 zm40,0 l-5.6,5.6 l5.6,5.6 l5.6,-5.6 l-5.6,-5.6 zm40,0 l-5.6,5.6 l5.6,5.6 l5.6,-5.6 l-5.6,-5.6 zm40,0 l-5.6,5.6 l5.6,5.6 l5.6,-5.6 l-5.6,-5.6 zm40,0 l-5.6,5.6 l5.6,5.6 l5.6,-5.6 l-5.6,-5.6 zm40,0 l-5.6,5.6 l5.6,5.6 l5.6,-5.6 l-5.6,-5.6 zm40,0 l-5.6,5.6 l5.6,5.6 l5.6,-5.6 l-5.6,-5.6 zm40,0 l-5.6,5.6 l5.6,5.6 l5.6,-5.6 l-5.6,-5.6 zm-740,19.401 l-6.199,6.199 l6.199,6.199 l6.199,-6.199 l-6.199,-6.199 zm40,0 l-6.199,6.199 l6.199,6.199 l6.199,-6.199 l-6.199,-6.199 zm40,0 l-6.199,6.199 l6.199,6.199 l6.2,-6.199 l-6.2,-6.199 zm40,0 l-6.2,6.199 l6.2,6.199 l6.2,-6.199 l-6.2,-6.199 zm40,0 l-6.2,6.199 l6.2,6.199 l6.2,-6.199 l-6.2,-6.199 zm40,0 l-6.2,6.199 l6.2,6.199 l6.2,-6.199 l-6.2,-6.199 zm40,0 l-6.2,6.199 l6.2,6.199 l6.2,-6.199 l-6.2,-6.199 zm40,0 l-6.2,6.199 l6.2,6.199 l6.2,-6.199 l-6.2,-6.199 zm40,0 l-6.2,6.199 l6.2,6.199 l6.2,-6.199 l-6.2,-6.199 zm40,0 l-6.2,6.199 l6.2,6.199 l6.2,-6.199 l-6.2,-6.199 zm40,0 l-6.2,6.199 l6.2,6.199 l6.2,-6.199 l-6.2,-6.199 zm40,0 l-6.2,6.199 l6.2,6.199 l6.2,-6.199 l-6.2,-6.199 zm40,0 l-6.2,6.199 l6.2,6.199 l6.2,-6.199 l-6.2,-6.199 zm40,0 l-6.2,6.199 l6.2,6.199 l6.2,-6.199 l-6.2,-6.199 zm40,0 l-6.2,6.199 l6.2,6.199 l6.2,-6.199 l-6.2,-6.199 zm40,0 l-6.2,6.199 l6.2,6.199 l6.2,-6.199 l-6.2,-6.199 zm40,0 l-6.2,6.199 l6.2,6.199 l6.2,-6.199 l-6.2,-6.199 zm40,0 l-6.2,6.199 l6.2,6.199 l6.2,-6.199 l-6.2,-6.199 zm40,0 l-6.2,6.199 l6.2,6.199 l6.2,-6.199 l-6.2,-6.199 zm40,0 l-6.2,6.199 l6.2,6.199 v-12.398 zm-780,19.398 v13.601 l6.8008,-6.8 l-6.8008,-6.801 zm40,0 l-6.801,6.801 l6.801,6.8 l6.801,-6.8 l-6.801,-6.801 zm40,0 l-6.801,6.801 l6.801,6.8 l6.801,-6.8 l-6.801,-6.801 zm40,0 l-6.8,6.801 l6.8,6.8 l6.8,-6.8 l-6.8,-6.801 zm40,0 l-6.8,6.801 l6.8,6.8 l6.8,-6.8 l-6.8,-6.801 zm40,0 l-6.8,6.801 l6.8,6.8 l6.8,-6.8 l-6.8,-6.801 zm40,0 l-6.8,6.801 l6.8,6.8 l6.8,-6.8 l-6.8,-6.801 zm40,0 l-6.8,6.801 l6.8,6.8 l6.8,-6.8 l-6.8,-6.801 zm40,0 l-6.8,6.801 l6.8,6.8 l6.8,-6.8 l-6.8,-6.801 zm40,0 l-6.8,6.801 l6.8,6.8 l6.8,-6.8 l-6.8,-6.801 zm40,0 l-6.8,6.801 l6.8,6.8 l6.8,-6.8 l-6.8,-6.801 zm40,0 l-6.8,6.801 l6.8,6.8 l6.8,-6.8 l-6.8,-6.801 zm40,0 l-6.8,6.801 l6.8,6.8 l6.8,-6.8 l-6.8,-6.801 zm40,0 l-6.8,6.801 l6.8,6.8 l6.8,-6.8 l-6.8,-6.801 zm40,0 l-6.8,6.801 l6.8,6.8 l6.8,-6.8 l-6.8,-6.801 zm40,0 l-6.8,6.801 l6.8,6.8 l6.8,-6.8 l-6.8,-6.801 zm40,0 l-6.8,6.801 l6.8,6.8 l6.8,-6.8 l-6.8,-6.801 zm40,0 l-6.8,6.801 l6.8,6.8 l6.8,-6.8 l-6.8,-6.801 zm40,0 l-6.8,6.801 l6.8,6.8 l6.8,-6.8 l-6.8,-6.801 zm40,0 l-6.8,6.801 l6.8,6.8 l6.8,-6.8 l-6.8,-6.801 zm-740,19.401 l-7.4,7.4 l7.4,7.4 l7.4,-7.4 l-7.4,-7.4 zm40,0 l-7.4,7.4 l7.4,7.4 l7.4,-7.4 l-7.4,-7.4 zm40,0 l-7.4,7.4 l7.4,7.4 l7.4,-7.4 l-7.4,-7.4 zm40,0 l-7.4,7.4 l7.4,7.4 l7.4,-7.4 l-7.4,-7.4 zm40,0 l-7.4,7.4 l7.4,7.4 l7.4,-7.4 l-7.4,-7.4 zm40,0 l-7.4,7.4 l7.4,7.4 l7.4,-7.4 l-7.4,-7.4 zm40,0 l-7.4,7.4 l7.4,7.4 l7.4,-7.4 l-7.4,-7.4 zm40,0 l-7.4,7.4 l7.4,7.4 l7.4,-7.4 l-7.4,-7.4 zm40,0 l-7.4,7.4 l7.4,7.4 l7.4,-7.4 l-7.4,-7.4 zm40,0 l-7.4,7.4 l7.4,7.4 l7.4,-7.4 l-7.4,-7.4 zm40,0 l-7.4,7.4 l7.4,7.4 l7.4,-7.4 l-7.4,-7.4 zm40,0 l-7.4,7.4 l7.4,7.4 l7.4,-7.4 l-7.4,-7.4 zm40,0 l-7.4,7.4 l7.4,7.4 l7.4,-7.4 l-7.4,-7.4 zm40,0 l-7.4,7.4 l7.4,7.4 l7.4,-7.4 l-7.4,-7.4 zm40,0 l-7.4,7.4 l7.4,7.4 l7.4,-7.4 l-7.4,-7.4 zm40,0 l-7.4,7.4 l7.4,7.4 l7.4,-7.4 l-7.4,-7.4 zm40,0 l-7.4,7.4 l7.4,7.4 l7.4,-7.4 l-7.4,-7.4 zm40,0 l-7.4,7.4 l7.4,7.4 l7.4,-7.4 l-7.4,-7.4 zm40,0 l-7.4,7.4 l7.4,7.4 l7.4,-7.4 l-7.4,-7.4 zm40,0 l-7.4,7.4 l7.4,7.4 v-14.8 zm-780,19.4 v16 l8,-8 l-8,-8 zm40,0 l-8,8 l8,8 l8,-8 l-8,-8 zm40,0 l-8,8 l8,8 l8,-8 l-8,-8 zm40,0 l-8,8 l8,8 l8,-8 l-8,-8 zm40,0 l-8,8 l8,8 l8,-8 l-8,-8 zm40,0 l-8,8 l8,8 l8,-8 l-8,-8 zm40,0 l-8,8 l8,8 l8,-8 l-8,-8 zm40,0 l-8,8 l8,8 l8,-8 l-8,-8 zm40,0 l-8,8 l8,8 l8,-8 l-8,-8 zm40,0 l-8,8 l8,8 l8,-8 l-8,-8 zm40,0 l-8,8 l8,8 l8,-8 l-8,-8 zm40,0 l-8,8 l8,8 l8,-8 l-8,-8 zm40,0 l-8,8 l8,8 l8,-8 l-8,-8 zm40,0 l-8,8 l8,8 l8,-8 l-8,-8 zm40,0 l-8,8 l8,8 l8,-8 l-8,-8 zm40,0 l-8,8 l8,8 l8,-8 l-8,-8 zm40,0 l-8,8 l8,8 l8,-8 l-8,-8 zm40,0 l-8,8 l8,8 l8,-8 l-8,-8 zm40,0 l-8,8 l8,8 l8,-8 l-8,-8 zm40,0 l-8,8 l8,8 l8,-8 l-8,-8 zm-740,19.4 l-8.6,8.6 l8.6,8.6 l8.6,-8.6 l-8.6,-8.6 zm40,0 l-8.6,8.6 l8.6,8.6 l8.6,-8.6 l-8.6,-8.6 zm40,0 l-8.6,8.6 l8.6,8.6 l8.6,-8.6 l-8.6,-8.6 zm40,0 l-8.6,8.6 l8.6,8.6 l8.6,-8.6 l-8.6,-8.6 zm40,0 l-8.6,8.6 l8.6,8.6 l8.6,-8.6 l-8.6,-8.6 zm40,0 l-8.6,8.6 l8.6,8.6 l8.6,-8.6 l-8.6,-8.6 zm40,0 l-8.6,8.6 l8.6,8.6 l8.6,-8.6 l-8.6,-8.6 zm40,0 l-8.6,8.6 l8.6,8.6 l8.6,-8.6 l-8.6,-8.6 zm40,0 l-8.6,8.6 l8.6,8.6 l8.6,-8.6 l-8.6,-8.6 zm40,0 l-8.6,8.6 l8.6,8.6 l8.6,-8.6 l-8.6,-8.6 zm40,0 l-8.6,8.6 l8.6,8.6 l8.6,-8.6 l-8.6,-8.6 zm40,0 l-8.6,8.6 l8.6,8.6 l8.6,-8.6 l-8.6,-8.6 zm40,0 l-8.6,8.6 l8.6,8.6 l8.6,-8.6 l-8.6,-8.6 zm40,0 l-8.6,8.6 l8.6,8.6 l8.6,-8.6 l-8.6,-8.6 zm40,0 l-8.6,8.6 l8.6,8.6 l8.6,-8.6 l-8.6,-8.6 zm40,0 l-8.6,8.6 l8.6,8.6 l8.6,-8.6 l-8.6,-8.6 zm40,0 l-8.6,8.6 l8.6,8.6 l8.6,-8.6 l-8.6,-8.6 zm40,0 l-8.6,8.6 l8.6,8.6 l8.6,-8.6 l-8.6,-8.6 zm40,0 l-8.6,8.6 l8.6,8.6 l8.6,-8.6 l-8.6,-8.6 zm40,0 l-8.6,8.6 l8.6,8.6 v-17.2 zm-780,19.4 v18.4 l9.1992,-9.2 l-9.1992,-9.2 zm40,0 l-9.199,9.2 l9.199,9.2 l9.199,-9.2 l-9.199,-9.2 zm40,0 l-9.199,9.2 l9.199,9.2 l9.199,-9.2 l-9.199,-9.2 zm40,0 l-9.2,9.2 l9.2,9.2 l9.2,-9.2 l-9.2,-9.2 zm40,0 l-9.2,9.2 l9.2,9.2 l9.2,-9.2 l-9.2,-9.2 zm40,0 l-9.2,9.2 l9.2,9.2 l9.2,-9.2 l-9.2,-9.2 zm40,0 l-9.2,9.2 l9.2,9.2 l9.2,-9.2 l-9.2,-9.2 zm40,0 l-9.2,9.2 l9.2,9.2 l9.2,-9.2 l-9.2,-9.2 zm40,0 l-9.2,9.2 l9.2,9.2 l9.2,-9.2 l-9.2,-9.2 zm40,0 l-9.2,9.2 l9.2,9.2 l9.2,-9.2 l-9.2,-9.2 zm40,0 l-9.2,9.2 l9.2,9.2 l9.2,-9.2 l-9.2,-9.2 zm40,0 l-9.2,9.2 l9.2,9.2 l9.2,-9.2 l-9.2,-9.2 zm40,0 l-9.2,9.2 l9.2,9.2 l9.2,-9.2 l-9.2,-9.2 zm40,0 l-9.2,9.2 l9.2,9.2 l9.2,-9.2 l-9.2,-9.2 zm40,0 l-9.2,9.2 l9.2,9.2 l9.2,-9.2 l-9.2,-9.2 zm40,0 l-9.2,9.2 l9.2,9.2 l9.2,-9.2 l-9.2,-9.2 zm40,0 l-9.2,9.2 l9.2,9.2 l9.2,-9.2 l-9.2,-9.2 zm40,0 l-9.2,9.2 l9.2,9.2 l9.2,-9.2 l-9.2,-9.2 zm40,0 l-9.2,9.2 l9.2,9.2 l9.2,-9.2 l-9.2,-9.2 zm40,0 l-9.2,9.2 l9.2,9.2 l9.2,-9.2 l-9.2,-9.2 zm-740,19.4 l-9.801,9.8 l9.801,9.8 l9.801,-9.8 l-9.801,-9.8 zm40,0 l-9.801,9.8 l9.801,9.8 l9.801,-9.8 l-9.801,-9.8 zm40,0 l-9.801,9.8 l9.801,9.8 l9.8,-9.8 l-9.8,-9.8 zm40,0 l-9.8,9.8 l9.8,9.8 l9.8,-9.8 l-9.8,-9.8 zm40,0 l-9.8,9.8 l9.8,9.8 l9.8,-9.8 l-9.8,-9.8 zm40,0 l-9.8,9.8 l9.8,9.8 l9.8,-9.8 l-9.8,-9.8 zm40,0 l-9.8,9.8 l9.8,9.8 l9.8,-9.8 l-9.8,-9.8 zm40,0 l-9.8,9.8 l9.8,9.8 l9.8,-9.8 l-9.8,-9.8 zm40,0 l-9.8,9.8 l9.8,9.8 l9.8,-9.8 l-9.8,-9.8 zm40,0 l-9.8,9.8 l9.8,9.8 l9.8,-9.8 l-9.8,-9.8 zm40,0 l-9.8,9.8 l9.8,9.8 l9.8,-9.8 l-9.8,-9.8 zm40,0 l-9.8,9.8 l9.8,9.8 l9.8,-9.8 l-9.8,-9.8 zm40,0 l-9.8,9.8 l9.8,9.8 l9.8,-9.8 l-9.8,-9.8 zm40,0 l-9.8,9.8 l9.8,9.8 l9.8,-9.8 l-9.8,-9.8 zm40,0 l-9.8,9.8 l9.8,9.8 l9.8,-9.8 l-9.8,-9.8 zm40,0 l-9.8,9.8 l9.8,9.8 l9.8,-9.8 l-9.8,-9.8 zm40,0 l-9.8,9.8 l9.8,9.8 l9.8,-9.8 l-9.8,-9.8 zm40,0 l-9.8,9.8 l9.8,9.8 l9.8,-9.8 l-9.8,-9.8 zm40,0 l-9.8,9.8 l9.8,9.8 l9.8,-9.8 l-9.8,-9.8 zm40,0 l-9.8,9.8 l9.8,9.8 v-19.6 zm-780,19.4 v20.8 l10.4,-10.4 l-10.4,-10.4 zm40,0 l-10.4,10.4 l10.4,10.4 l10.4,-10.4 l-10.4,-10.4 zm40,0 l-10.4,10.4 l10.4,10.4 l10.4,-10.4 l-10.4,-10.4 zm40,0 l-10.4,10.4 l10.4,10.4 l10.4,-10.4 l-10.4,-10.4 zm40,0 l-10.4,10.4 l10.4,10.4 l10.4,-10.4 l-10.4,-10.4 zm40,0 l-10.4,10.4 l10.4,10.4 l10.4,-10.4 l-10.4,-10.4 zm40,0 l-10.4,10.4 l10.4,10.4 l10.4,-10.4 l-10.4,-10.4 zm40,0 l-10.4,10.4 l10.4,10.4 l10.4,-10.4 l-10.4,-10.4 zm40,0 l-10.4,10.4 l10.4,10.4 l10.4,-10.4 l-10.4,-10.4 zm40,0 l-10.4,10.4 l10.4,10.4 l10.4,-10.4 l-10.4,-10.4 zm40,0 l-10.4,10.4 l10.4,10.4 l10.4,-10.4 l-10.4,-10.4 zm40,0 l-10.4,10.4 l10.4,10.4 l10.4,-10.4 l-10.4,-10.4 zm40,0 l-10.4,10.4 l10.4,10.4 l10.4,-10.4 l-10.4,-10.4 zm40,0 l-10.4,10.4 l10.4,10.4 l10.4,-10.4 l-10.4,-10.4 zm40,0 l-10.4,10.4 l10.4,10.4 l10.4,-10.4 l-10.4,-10.4 zm40,0 l-10.4,10.4 l10.4,10.4 l10.4,-10.4 l-10.4,-10.4 zm40,0 l-10.4,10.4 l10.4,10.4 l10.4,-10.4 l-10.4,-10.4 zm40,0 l-10.4,10.4 l10.4,10.4 l10.4,-10.4 l-10.4,-10.4 zm40,0 l-10.4,10.4 l10.4,10.4 l10.4,-10.4 l-10.4,-10.4 zm40,0 l-10.4,10.4 l10.4,10.4 l10.4,-10.4 l-10.4,-10.4 zm-740,19.4 l-11,11 l11,11 l11,-11 l-11,-11 zm40,0 l-11,11 l11,11 l11,-11 l-11,-11 zm40,0 l-11,11 l11,11 l11,-11 l-11,-11 zm40,0 l-11,11 l11,11 l11,-11 l-11,-11 zm40,0 l-11,11 l11,11 l11,-11 l-11,-11 zm40,0 l-11,11 l11,11 l11,-11 l-11,-11 zm40,0 l-11,11 l11,11 l11,-11 l-11,-11 zm40,0 l-11,11 l11,11 l11,-11 l-11,-11 zm40,0 l-11,11 l11,11 l11,-11 l-11,-11 zm40,0 l-11,11 l11,11 l11,-11 l-11,-11 zm40,0 l-11,11 l11,11 l11,-11 l-11,-11 zm40,0 l-11,11 l11,11 l11,-11 l-11,-11 zm40,0 l-11,11 l11,11 l11,-11 l-11,-11 zm40,0 l-11,11 l11,11 l11,-11 l-11,-11 zm40,0 l-11,11 l11,11 l11,-11 l-11,-11 zm40,0 l-11,11 l11,11 l11,-11 l-11,-11 zm40,0 l-11,11 l11,11 l11,-11 l-11,-11 zm40,0 l-11,11 l11,11 l11,-11 l-11,-11 zm40,0 l-11,11 l11,11 l11,-11 l-11,-11 zm40,0 l-11,11 l11,11 v-22 zm-780,19.4 v23.2 l11.6,-11.6 l-11.6,-11.6 zm40,0 l-11.6,11.6 l11.6,11.6 l11.6,-11.6 l-11.6,-11.6 zm40,0 l-11.6,11.6 l11.6,11.6 l11.6,-11.6 l-11.6,-11.6 zm40,0 l-11.6,11.6 l11.6,11.6 l11.6,-11.6 l-11.6,-11.6 zm40,0 l-11.6,11.6 l11.6,11.6 l11.6,-11.6 l-11.6,-11.6 zm40,0 l-11.6,11.6 l11.6,11.6 l11.6,-11.6 l-11.6,-11.6 zm40,0 l-11.6,11.6 l11.6,11.6 l11.6,-11.6 l-11.6,-11.6 zm40,0 l-11.6,11.6 l11.6,11.6 l11.6,-11.6 l-11.6,-11.6 zm40,0 l-11.6,11.6 l11.6,11.6 l11.6,-11.6 l-11.6,-11.6 zm40,0 l-11.6,11.6 l11.6,11.6 l11.6,-11.6 l-11.6,-11.6 zm40,0 l-11.6,11.6 l11.6,11.6 l11.6,-11.6 l-11.6,-11.6 zm40,0 l-11.6,11.6 l11.6,11.6 l11.6,-11.6 l-11.6,-11.6 zm40,0 l-11.6,11.6 l11.6,11.6 l11.6,-11.6 l-11.6,-11.6 zm40,0 l-11.6,11.6 l11.6,11.6 l11.6,-11.6 l-11.6,-11.6 zm40,0 l-11.6,11.6 l11.6,11.6 l11.6,-11.6 l-11.6,-11.6 zm40,0 l-11.6,11.6 l11.6,11.6 l11.6,-11.6 l-11.6,-11.6 zm40,0 l-11.6,11.6 l11.6,11.6 l11.6,-11.6 l-11.6,-11.6 zm40,0 l-11.6,11.6 l11.6,11.6 l11.6,-11.6 l-11.6,-11.6 zm40,0 l-11.6,11.6 l11.6,11.6 l11.6,-11.6 l-11.6,-11.6 zm40,0 l-11.6,11.6 l11.6,11.6 l11.6,-11.6 l-11.6,-11.6 zm-740,19.4 l-12.199,12.2 l12.199,12.2 l12.199,-12.2 l-12.199,-12.2 zm40,0 l-12.199,12.2 l12.199,12.2 l12.199,-12.2 l-12.199,-12.2 zm40,0 l-12.199,12.2 l12.199,12.2 l12.2,-12.2 l-12.2,-12.2 zm40,0 l-12.2,12.2 l12.2,12.2 l12.2,-12.2 l-12.2,-12.2 zm40,0 l-12.2,12.2 l12.2,12.2 l12.2,-12.2 l-12.2,-12.2 zm40,0 l-12.2,12.2 l12.2,12.2 l12.2,-12.2 l-12.2,-12.2 zm40,0 l-12.2,12.2 l12.2,12.2 l12.2,-12.2 l-12.2,-12.2 zm40,0 l-12.2,12.2 l12.2,12.2 l12.2,-12.2 l-12.2,-12.2 zm40,0 l-12.2,12.2 l12.2,12.2 l12.2,-12.2 l-12.2,-12.2 zm40,0 l-12.2,12.2 l12.2,12.2 l12.2,-12.2 l-12.2,-12.2 zm40,0 l-12.2,12.2 l12.2,12.2 l12.2,-12.2 l-12.2,-12.2 zm40,0 l-12.2,12.2 l12.2,12.2 l12.2,-12.2 l-12.2,-12.2 zm40,0 l-12.2,12.2 l12.2,12.2 l12.2,-12.2 l-12.2,-12.2 zm40,0 l-12.2,12.2 l12.2,12.2 l12.2,-12.2 l-12.2,-12.2 zm40,0 l-12.2,12.2 l12.2,12.2 l12.2,-12.2 l-12.2,-12.2 zm40,0 l-12.2,12.2 l12.2,12.2 l12.2,-12.2 l-12.2,-12.2 zm40,0 l-12.2,12.2 l12.2,12.2 l12.2,-12.2 l-12.2,-12.2 zm40,0 l-12.2,12.2 l12.2,12.2 l12.2,-12.2 l-12.2,-12.2 zm40,0 l-12.2,12.2 l12.2,12.2 l12.2,-12.2 l-12.2,-12.2 zm40,0 l-12.2,12.2 l12.2,12.2 v-24.4 zm-780,19.4 v25.6 l12.801,-12.8 l-12.801,-12.8 zm40,0 l-12.801,12.8 l12.801,12.8 l12.801,-12.8 l-12.801,-12.8 zm40,0 l-12.801,12.8 l12.801,12.8 l12.801,-12.8 l-12.801,-12.8 zm40,0 l-12.8,12.8 l12.8,12.8 l12.8,-12.8 l-12.8,-12.8 zm40,0 l-12.8,12.8 l12.8,12.8 l12.8,-12.8 l-12.8,-12.8 zm40,0 l-12.8,12.8 l12.8,12.8 l12.8,-12.8 l-12.8,-12.8 zm40,0 l-12.8,12.8 l12.8,12.8 l12.8,-12.8 l-12.8,-12.8 zm40,0 l-12.8,12.8 l12.8,12.8 l12.8,-12.8 l-12.8,-12.8 zm40,0 l-12.8,12.8 l12.8,12.8 l12.8,-12.8 l-12.8,-12.8 zm40,0 l-12.8,12.8 l12.8,12.8 l12.8,-12.8 l-12.8,-12.8 zm40,0 l-12.8,12.8 l12.8,12.8 l12.8,-12.8 l-12.8,-12.8 zm40,0 l-12.8,12.8 l12.8,12.8 l12.8,-12.8 l-12.8,-12.8 zm40,0 l-12.8,12.8 l12.8,12.8 l12.8,-12.8 l-12.8,-12.8 zm40,0 l-12.8,12.8 l12.8,12.8 l12.8,-12.8 l-12.8,-12.8 zm40,0 l-12.8,12.8 l12.8,12.8 l12.8,-12.8 l-12.8,-12.8 zm40,0 l-12.8,12.8 l12.8,12.8 l12.8,-12.8 l-12.8,-12.8 zm40,0 l-12.8,12.8 l12.8,12.8 l12.8,-12.8 l-12.8,-12.8 zm40,0 l-12.8,12.8 l12.8,12.8 l12.8,-12.8 l-12.8,-12.8 zm40,0 l-12.8,12.8 l12.8,12.8 l12.8,-12.8 l-12.8,-12.8 zm40,0 l-12.8,12.8 l12.8,12.8 l12.8,-12.8 l-12.8,-12.8 zm-740,19.4 l-13.4,13.4 l13.4,13.4 l13.4,-13.4 l-13.4,-13.4 zm40,0 l-13.4,13.4 l13.4,13.4 l13.4,-13.4 l-13.4,-13.4 zm40,0 l-13.4,13.4 l13.4,13.4 l13.4,-13.4 l-13.4,-13.4 zm40,0 l-13.4,13.4 l13.4,13.4 l13.4,-13.4 l-13.4,-13.4 zm40,0 l-13.4,13.4 l13.4,13.4 l13.4,-13.4 l-13.4,-13.4 zm40,0 l-13.4,13.4 l13.4,13.4 l13.4,-13.4 l-13.4,-13.4 zm40,0 l-13.4,13.4 l13.4,13.4 l13.4,-13.4 l-13.4,-13.4 zm40,0 l-13.4,13.4 l13.4,13.4 l13.4,-13.4 l-13.4,-13.4 zm40,0 l-13.4,13.4 l13.4,13.4 l13.4,-13.4 l-13.4,-13.4 zm40,0 l-13.4,13.4 l13.4,13.4 l13.4,-13.4 l-13.4,-13.4 zm40,0 l-13.4,13.4 l13.4,13.4 l13.4,-13.4 l-13.4,-13.4 zm40,0 l-13.4,13.4 l13.4,13.4 l13.4,-13.4 l-13.4,-13.4 zm40,0 l-13.4,13.4 l13.4,13.4 l13.4,-13.4 l-13.4,-13.4 zm40,0 l-13.4,13.4 l13.4,13.4 l13.4,-13.4 l-13.4,-13.4 zm40,0 l-13.4,13.4 l13.4,13.4 l13.4,-13.4 l-13.4,-13.4 zm40,0 l-13.4,13.4 l13.4,13.4 l13.4,-13.4 l-13.4,-13.4 zm40,0 l-13.4,13.4 l13.4,13.4 l13.4,-13.4 l-13.4,-13.4 zm40,0 l-13.4,13.4 l13.4,13.4 l13.4,-13.4 l-13.4,-13.4 zm40,0 l-13.4,13.4 l13.4,13.4 l13.4,-13.4 l-13.4,-13.4 zm40,0 l-13.4,13.4 l13.4,13.4 v-26.8 zm-780,19.4 v28 l14,-14 l-14,-14 zm40,0 l-14,14 l14,14 l14,-14 l-14,-14 zm40,0 l-14,14 l14,14 l14,-14 l-14,-14 zm40,0 l-14,14 l14,14 l14,-14 l-14,-14 zm40,0 l-14,14 l14,14 l14,-14 l-14,-14 zm40,0 l-14,14 l14,14 l14,-14 l-14,-14 zm40,0 l-14,14 l14,14 l14,-14 l-14,-14 zm40,0 l-14,14 l14,14 l14,-14 l-14,-14 zm40,0 l-14,14 l14,14 l14,-14 l-14,-14 zm40,0 l-14,14 l14,14 l14,-14 l-14,-14 zm40,0 l-14,14 l14,14 l14,-14 l-14,-14 zm40,0 l-14,14 l14,14 l14,-14 l-14,-14 zm40,0 l-14,14 l14,14 l14,-14 l-14,-14 zm40,0 l-14,14 l14,14 l14,-14 l-14,-14 zm40,0 l-14,14 l14,14 l14,-14 l-14,-14 zm40,0 l-14,14 l14,14 l14,-14 l-14,-14 zm40,0 l-14,14 l14,14 l14,-14 l-14,-14 zm40,0 l-14,14 l14,14 l14,-14 l-14,-14 zm40,0 l-14,14 l14,14 l14,-14 l-14,-14 zm40,0 l-14,14 l14,14 l14,-14 l-14,-14 zm-740,19.4 l-14.6,14.6 l14.6,14.6 l14.6,-14.6 l-14.6,-14.6 zm40,0 l-14.6,14.6 l14.6,14.6 l14.6,-14.6 l-14.6,-14.6 zm40,0 l-14.6,14.6 l14.6,14.6 l14.6,-14.6 l-14.6,-14.6 zm40,0 l-14.6,14.6 l14.6,14.6 l14.6,-14.6 l-14.6,-14.6 zm40,0 l-14.6,14.6 l14.6,14.6 l14.6,-14.6 l-14.6,-14.6 zm40,0 l-14.6,14.6 l14.6,14.6 l14.6,-14.6 l-14.6,-14.6 zm40,0 l-14.6,14.6 l14.6,14.6 l14.6,-14.6 l-14.6,-14.6 zm40,0 l-14.6,14.6 l14.6,14.6 l14.6,-14.6 l-14.6,-14.6 zm40,0 l-14.6,14.6 l14.6,14.6 l14.6,-14.6 l-14.6,-14.6 zm40,0 l-14.6,14.6 l14.6,14.6 l14.6,-14.6 l-14.6,-14.6 zm40,0 l-14.6,14.6 l14.6,14.6 l14.6,-14.6 l-14.6,-14.6 zm40,0 l-14.6,14.6 l14.6,14.6 l14.6,-14.6 l-14.6,-14.6 zm40,0 l-14.6,14.6 l14.6,14.6 l14.6,-14.6 l-14.6,-14.6 zm40,0 l-14.6,14.6 l14.6,14.6 l14.6,-14.6 l-14.6,-14.6 zm40,0 l-14.6,14.6 l14.6,14.6 l14.6,-14.6 l-14.6,-14.6 zm40,0 l-14.6,14.6 l14.6,14.6 l14.6,-14.6 l-14.6,-14.6 zm40,0 l-14.6,14.6 l14.6,14.6 l14.6,-14.6 l-14.6,-14.6 zm40,0 l-14.6,14.6 l14.6,14.6 l14.6,-14.6 l-14.6,-14.6 zm40,0 l-14.6,14.6 l14.6,14.6 l14.6,-14.6 l-14.6,-14.6 zm40,0 l-14.6,14.6 l14.6,14.6 v-29.2 zm-780,19.4 v30.4 l15.199,-15.2 l-15.199,-15.2 zm40,0 l-15.199,15.2 l15.199,15.2 l15.199,-15.2 l-15.199,-15.2 zm40,0 l-15.199,15.2 l15.199,15.2 l15.199,-15.2 l-15.199,-15.2 zm40,0 l-15.2,15.2 l15.2,15.2 l15.2,-15.2 l-15.2,-15.2 zm40,0 l-15.2,15.2 l15.2,15.2 l15.2,-15.2 l-15.2,-15.2 zm40,0 l-15.2,15.2 l15.2,15.2 l15.2,-15.2 l-15.2,-15.2 zm40,0 l-15.2,15.2 l15.2,15.2 l15.2,-15.2 l-15.2,-15.2 zm40,0 l-15.2,15.2 l15.2,15.2 l15.2,-15.2 l-15.2,-15.2 zm40,0 l-15.2,15.2 l15.2,15.2 l15.2,-15.2 l-15.2,-15.2 zm40,0 l-15.2,15.2 l15.2,15.2 l15.2,-15.2 l-15.2,-15.2 zm40,0 l-15.2,15.2 l15.2,15.2 l15.2,-15.2 l-15.2,-15.2 zm40,0 l-15.2,15.2 l15.2,15.2 l15.2,-15.2 l-15.2,-15.2 zm40,0 l-15.2,15.2 l15.2,15.2 l15.2,-15.2 l-15.2,-15.2 zm40,0 l-15.2,15.2 l15.2,15.2 l15.2,-15.2 l-15.2,-15.2 zm40,0 l-15.2,15.2 l15.2,15.2 l15.2,-15.2 l-15.2,-15.2 zm40,0 l-15.2,15.2 l15.2,15.2 l15.2,-15.2 l-15.2,-15.2 zm40,0 l-15.2,15.2 l15.2,15.2 l15.2,-15.2 l-15.2,-15.2 zm40,0 l-15.2,15.2 l15.2,15.2 l15.2,-15.2 l-15.2,-15.2 zm40,0 l-15.2,15.2 l15.2,15.2 l15.2,-15.2 l-15.2,-15.2 zm40,0 l-15.2,15.2 l15.2,15.2 l15.2,-15.2 l-15.2,-15.2 zm-740,19.4 l-15.801,15.8 l15.801,15.8 l15.801,-15.8 l-15.801,-15.8 zm40,0 l-15.801,15.8 l15.801,15.8 l15.801,-15.8 l-15.801,-15.8 zm40,0 l-15.801,15.8 l15.801,15.8 l15.8,-15.8 l-15.8,-15.8 zm40,0 l-15.8,15.8 l15.8,15.8 l15.8,-15.8 l-15.8,-15.8 zm40,0 l-15.8,15.8 l15.8,15.8 l15.8,-15.8 l-15.8,-15.8 zm40,0 l-15.8,15.8 l15.8,15.8 l15.8,-15.8 l-15.8,-15.8 zm40,0 l-15.8,15.8 l15.8,15.8 l15.8,-15.8 l-15.8,-15.8 zm40,0 l-15.8,15.8 l15.8,15.8 l15.8,-15.8 l-15.8,-15.8 zm40,0 l-15.8,15.8 l15.8,15.8 l15.8,-15.8 l-15.8,-15.8 zm40,0 l-15.8,15.8 l15.8,15.8 l15.8,-15.8 l-15.8,-15.8 zm40,0 l-15.8,15.8 l15.8,15.8 l15.8,-15.8 l-15.8,-15.8 zm40,0 l-15.8,15.8 l15.8,15.8 l15.8,-15.8 l-15.8,-15.8 zm40,0 l-15.8,15.8 l15.8,15.8 l15.8,-15.8 l-15.8,-15.8 zm40,0 l-15.8,15.8 l15.8,15.8 l15.8,-15.8 l-15.8,-15.8 zm40,0 l-15.8,15.8 l15.8,15.8 l15.8,-15.8 l-15.8,-15.8 zm40,0 l-15.8,15.8 l15.8,15.8 l15.8,-15.8 l-15.8,-15.8 zm40,0 l-15.8,15.8 l15.8,15.8 l15.8,-15.8 l-15.8,-15.8 zm40,0 l-15.8,15.8 l15.8,15.8 l15.8,-15.8 l-15.8,-15.8 zm40,0 l-15.8,15.8 l15.8,15.8 l15.8,-15.8 l-15.8,-15.8 zm40,0 l-15.8,15.8 l15.8,15.8 v-31.6 zm-780,19.4 v32.8 l16.4,-16.4 l-16.4,-16.4 zm40,0 l-16.4,16.4 l16.4,16.4 l16.4,-16.4 l-16.4,-16.4 zm40,0 l-16.4,16.4 l16.4,16.4 l16.4,-16.4 l-16.4,-16.4 zm40,0 l-16.4,16.4 l16.4,16.4 l16.4,-16.4 l-16.4,-16.4 zm40,0 l-16.4,16.4 l16.4,16.4 l16.4,-16.4 l-16.4,-16.4 zm40,0 l-16.4,16.4 l16.4,16.4 l16.4,-16.4 l-16.4,-16.4 zm40,0 l-16.4,16.4 l16.4,16.4 l16.4,-16.4 l-16.4,-16.4 zm40,0 l-16.4,16.4 l16.4,16.4 l16.4,-16.4 l-16.4,-16.4 zm40,0 l-16.4,16.4 l16.4,16.4 l16.4,-16.4 l-16.4,-16.4 zm40,0 l-16.4,16.4 l16.4,16.4 l16.4,-16.4 l-16.4,-16.4 zm40,0 l-16.4,16.4 l16.4,16.4 l16.4,-16.4 l-16.4,-16.4 zm40,0 l-16.4,16.4 l16.4,16.4 l16.4,-16.4 l-16.4,-16.4 zm40,0 l-16.4,16.4 l16.4,16.4 l16.4,-16.4 l-16.4,-16.4 zm40,0 l-16.4,16.4 l16.4,16.4 l16.4,-16.4 l-16.4,-16.4 zm40,0 l-16.4,16.4 l16.4,16.4 l16.4,-16.4 l-16.4,-16.4 zm40,0 l-16.4,16.4 l16.4,16.4 l16.4,-16.4 l-16.4,-16.4 zm40,0 l-16.4,16.4 l16.4,16.4 l16.4,-16.4 l-16.4,-16.4 zm40,0 l-16.4,16.4 l16.4,16.4 l16.4,-16.4 l-16.4,-16.4 zm40,0 l-16.4,16.4 l16.4,16.4 l16.4,-16.4 l-16.4,-16.4 zm40,0 l-16.4,16.4 l16.4,16.4 l16.4,-16.4 l-16.4,-16.4 zm-740,19.4 l-17,17 l17,17 l17,-17 l-17,-17 zm40,0 l-17,17 l17,17 l17,-17 l-17,-17 zm40,0 l-17,17 l17,17 l17,-17 l-17,-17 zm40,0 l-17,17 l17,17 l17,-17 l-17,-17 zm40,0 l-17,17 l17,17 l17,-17 l-17,-17 zm40,0 l-17,17 l17,17 l17,-17 l-17,-17 zm40,0 l-17,17 l17,17 l17,-17 l-17,-17 zm40,0 l-17,17 l17,17 l17,-17 l-17,-17 zm40,0 l-17,17 l17,17 l17,-17 l-17,-17 zm40,0 l-17,17 l17,17 l17,-17 l-17,-17 zm40,0 l-17,17 l17,17 l17,-17 l-17,-17 zm40,0 l-17,17 l17,17 l17,-17 l-17,-17 zm40,0 l-17,17 l17,17 l17,-17 l-17,-17 zm40,0 l-17,17 l17,17 l17,-17 l-17,-17 zm40,0 l-17,17 l17,17 l17,-17 l-17,-17 zm40,0 l-17,17 l17,17 l17,-17 l-17,-17 zm40,0 l-17,17 l17,17 l17,-17 l-17,-17 zm40,0 l-17,17 l17,17 l17,-17 l-17,-17 zm40,0 l-17,17 l17,17 l17,-17 l-17,-17 zm40,0 l-17,17 l17,17 v-34 zm-780,19.4 v35.2 l17.6,-17.6 l-17.6,-17.6 zm40,0 l-17.6,17.6 l17.6,17.6 l17.6,-17.6 l-17.6,-17.6 zm40,0 l-17.6,17.6 l17.6,17.6 l17.6,-17.6 l-17.6,-17.6 zm40,0 l-17.6,17.6 l17.6,17.6 l17.6,-17.6 l-17.6,-17.6 zm40,0 l-17.6,17.6 l17.6,17.6 l17.6,-17.6 l-17.6,-17.6 zm40,0 l-17.6,17.6 l17.6,17.6 l17.6,-17.6 l-17.6,-17.6 zm40,0 l-17.6,17.6 l17.6,17.6 l17.6,-17.6 l-17.6,-17.6 zm40,0 l-17.6,17.6 l17.6,17.6 l17.6,-17.6 l-17.6,-17.6 zm40,0 l-17.6,17.6 l17.6,17.6 l17.6,-17.6 l-17.6,-17.6 zm40,0 l-17.6,17.6 l17.6,17.6 l17.6,-17.6 l-17.6,-17.6 zm40,0 l-17.6,17.6 l17.6,17.6 l17.6,-17.6 l-17.6,-17.6 zm40,0 l-17.6,17.6 l17.6,17.6 l17.6,-17.6 l-17.6,-17.6 zm40,0 l-17.6,17.6 l17.6,17.6 l17.6,-17.6 l-17.6,-17.6 zm40,0 l-17.6,17.6 l17.6,17.6 l17.6,-17.6 l-17.6,-17.6 zm40,0 l-17.6,17.6 l17.6,17.6 l17.6,-17.6 l-17.6,-17.6 zm40,0 l-17.6,17.6 l17.6,17.6 l17.6,-17.6 l-17.6,-17.6 zm40,0 l-17.6,17.6 l17.6,17.6 l17.6,-17.6 l-17.6,-17.6 zm40,0 l-17.6,17.6 l17.6,17.6 l17.6,-17.6 l-17.6,-17.6 zm40,0 l-17.6,17.6 l17.6,17.6 l17.6,-17.6 l-17.6,-17.6 zm40,0 l-17.6,17.6 l17.6,17.6 l17.6,-17.6 l-17.6,-17.6 zm-740,19.4 l-18.199,18.2 l18.199,18.2 l18.199,-18.2 l-18.199,-18.2 zm40,0 l-18.199,18.2 l18.199,18.2 l18.199,-18.2 l-18.199,-18.2 zm40,0 l-18.199,18.2 l18.199,18.2 l18.2,-18.2 l-18.2,-18.2 zm40,0 l-18.2,18.2 l18.2,18.2 l18.2,-18.2 l-18.2,-18.2 zm40,0 l-18.2,18.2 l18.2,18.2 l18.2,-18.2 l-18.2,-18.2 zm40,0 l-18.2,18.2 l18.2,18.2 l18.2,-18.2 l-18.2,-18.2 zm40,0 l-18.2,18.2 l18.2,18.2 l18.2,-18.2 l-18.2,-18.2 zm40,0 l-18.2,18.2 l18.2,18.2 l18.2,-18.2 l-18.2,-18.2 zm40,0 l-18.2,18.2 l18.2,18.2 l18.2,-18.2 l-18.2,-18.2 zm40,0 l-18.2,18.2 l18.2,18.2 l18.2,-18.2 l-18.2,-18.2 zm40,0 l-18.2,18.2 l18.2,18.2 l18.2,-18.2 l-18.2,-18.2 zm40,0 l-18.2,18.2 l18.2,18.2 l18.2,-18.2 l-18.2,-18.2 zm40,0 l-18.2,18.2 l18.2,18.2 l18.2,-18.2 l-18.2,-18.2 zm40,0 l-18.2,18.2 l18.2,18.2 l18.2,-18.2 l-18.2,-18.2 zm40,0 l-18.2,18.2 l18.2,18.2 l18.2,-18.2 l-18.2,-18.2 zm40,0 l-18.2,18.2 l18.2,18.2 l18.2,-18.2 l-18.2,-18.2 zm40,0 l-18.2,18.2 l18.2,18.2 l18.2,-18.2 l-18.2,-18.2 zm40,0 l-18.2,18.2 l18.2,18.2 l18.2,-18.2 l-18.2,-18.2 zm40,0 l-18.2,18.2 l18.2,18.2 l18.2,-18.2 l-18.2,-18.2 zm40,0 l-18.2,18.2 l18.2,18.2 v-36.4 zm-780,19.4 v37.6 l18.801,-18.8 l-18.801,-18.8 zm40,0 l-18.801,18.8 l18.801,18.8 l18.801,-18.8 l-18.801,-18.8 zm40,0 l-18.801,18.8 l18.801,18.8 l18.801,-18.8 l-18.801,-18.8 zm40,0 l-18.8,18.8 l18.8,18.8 l18.8,-18.8 l-18.8,-18.8 zm40,0 l-18.8,18.8 l18.8,18.8 l18.8,-18.8 l-18.8,-18.8 zm40,0 l-18.8,18.8 l18.8,18.8 l18.8,-18.8 l-18.8,-18.8 zm40,0 l-18.8,18.8 l18.8,18.8 l18.8,-18.8 l-18.8,-18.8 zm40,0 l-18.8,18.8 l18.8,18.8 l18.8,-18.8 l-18.8,-18.8 zm40,0 l-18.8,18.8 l18.8,18.8 l18.8,-18.8 l-18.8,-18.8 zm40,0 l-18.8,18.8 l18.8,18.8 l18.8,-18.8 l-18.8,-18.8 zm40,0 l-18.8,18.8 l18.8,18.8 l18.8,-18.8 l-18.8,-18.8 zm40,0 l-18.8,18.8 l18.8,18.8 l18.8,-18.8 l-18.8,-18.8 zm40,0 l-18.8,18.8 l18.8,18.8 l18.8,-18.8 l-18.8,-18.8 zm40,0 l-18.8,18.8 l18.8,18.8 l18.8,-18.8 l-18.8,-18.8 zm40,0 l-18.8,18.8 l18.8,18.8 l18.8,-18.8 l-18.8,-18.8 zm40,0 l-18.8,18.8 l18.8,18.8 l18.8,-18.8 l-18.8,-18.8 zm40,0 l-18.8,18.8 l18.8,18.8 l18.8,-18.8 l-18.8,-18.8 zm40,0 l-18.8,18.8 l18.8,18.8 l18.8,-18.8 l-18.8,-18.8 zm40,0 l-18.8,18.8 l18.8,18.8 l18.8,-18.8 l-18.8,-18.8 zm40,0 l-18.8,18.8 l18.8,18.8 l18.8,-18.8 l-18.8,-18.8 zm-740,19.4 l-19.4,19.4 l19.4,19.4 l19.4,-19.4 l-19.4,-19.4 zm40,0 l-19.4,19.4 l19.4,19.4 l19.4,-19.4 l-19.4,-19.4 zm40,0 l-19.4,19.4 l19.4,19.4 l19.4,-19.4 l-19.4,-19.4 zm40,0 l-19.4,19.4 l19.4,19.4 l19.4,-19.4 l-19.4,-19.4 zm40,0 l-19.4,19.4 l19.4,19.4 l19.4,-19.4 l-19.4,-19.4 zm40,0 l-19.4,19.4 l19.4,19.4 l19.4,-19.4 l-19.4,-19.4 zm40,0 l-19.4,19.4 l19.4,19.4 l19.4,-19.4 l-19.4,-19.4 zm40,0 l-19.4,19.4 l19.4,19.4 l19.4,-19.4 l-19.4,-19.4 zm40,0 l-19.4,19.4 l19.4,19.4 l19.4,-19.4 l-19.4,-19.4 zm40,0 l-19.4,19.4 l19.4,19.4 l19.4,-19.4 l-19.4,-19.4 zm40,0 l-19.4,19.4 l19.4,19.4 l19.4,-19.4 l-19.4,-19.4 zm40,0 l-19.4,19.4 l19.4,19.4 l19.4,-19.4 l-19.4,-19.4 zm40,0 l-19.4,19.4 l19.4,19.4 l19.4,-19.4 l-19.4,-19.4 zm40,0 l-19.4,19.4 l19.4,19.4 l19.4,-19.4 l-19.4,-19.4 zm40,0 l-19.4,19.4 l19.4,19.4 l19.4,-19.4 l-19.4,-19.4 zm40,0 l-19.4,19.4 l19.4,19.4 l19.4,-19.4 l-19.4,-19.4 zm40,0 l-19.4,19.4 l19.4,19.4 l19.4,-19.4 l-19.4,-19.4 zm40,0 l-19.4,19.4 l19.4,19.4 l19.4,-19.4 l-19.4,-19.4 zm40,0 l-19.4,19.4 l19.4,19.4 l19.4,-19.4 l-19.4,-19.4 zm40,0 l-19.4,19.4 l19.4,19.4 v-38.8 zm-780,19.4 v20 h20 l-20,-20 zm20,20 h40 l-20,-20 l-20,20 zm40,0 h40 l-20,-20 l-20,20 zm40,0 h40 l-20,-20 l-20,20 zm40,0 h40 l-20,-20 l-20,20 zm40,0 h40 l-20,-20 l-20,20 zm40,0 h40 l-20,-20 l-20,20 zm40,0 h40 l-20,-20 l-20,20 zm40,0 h40 l-20,-20 l-20,20 zm40,0 h40 l-20,-20 l-20,20 zm40,0 h40 l-20,-20 l-20,20 zm40,0 h40 l-20,-20 l-20,20 zm40,0 h40 l-20,-20 l-20,20 zm40,0 h40 l-20,-20 l-20,20 zm40,0 h40 l-20,-20 l-20,20 zm40,0 h40 l-20,-20 l-20,20 zm40,0 h40 l-20,-20 l-20,20 zm40,0 h40 l-20,-20 l-20,20 zm40,0 h40 l-20,-20 l-20,20 zm40,0 h40 l-20,-20 l-20,20 z" fill-rule="evenodd" fill="#ffffff" fill-opacity="1"/>
</g></g></svg>