<svg xmlns="http://www.w3.org/2000/svg" xmlns:xlink="http://www.w3.org/1999/xlink" version="1.1" width="1204" height="1204" enable-background="new 0 0 1204 1204" xml:space="preserve"><rect id="backgroundrect" width="100%" height="100%" x="0" y="0" fill="none" stroke="none"/>




<g class="currentLayer" style=""><title>Layer 1</title><g id="svg_40" class="selected" fill="#38bdf8" fill-opacity="1">
	<g id="svg_41" fill="#38bdf8" fill-opacity="1">
		<g id="svg_42" fill="#38bdf8" fill-opacity="1">
			<path d="M370.44291119766234,176.24914292526245 c0,0 -50.287,-15.068 -21.34,46.276 C412.99091119766234,260.98014292526244 466.2299111976623,300.7961429252625 516.7909111976624,351.35714292526245 c36.715,36.715 73.321,71.883 99.962,115.785 c10.249,-21.223 22.941,-41.291 37.884,-59.708 c-5.554,-8.6 -11.568,-17.444 -18.075,-26.543 C519.1199111976623,216.69914292526246 393.7969111976623,116.56014292526245 373.54091119766235,106.28614292526245 C336.65491119766233,87.54014292526246 351.02991119766233,149.18814292526244 370.44291119766234,176.24914292526245 " id="svg_43" fill="#38bdf8" fill-opacity="1"/>
			<g id="svg_44" fill="#38bdf8" fill-opacity="1">
				<path d="M995.9899111976624,330.70014292526247 c-11.705,9.193 -21.527,20.203 -30.318,32.02 c-8.699,11.86 -16.328,24.566 -22.396,38.017 c-1.6310000000000002,3.295 -2.823,6.79 -4.2780000000000005,10.187 l-2.066,5.136 c-0.6820000000000006,1.715 -1.171,3.489 -1.77,5.23 l-3.443,10.537 l-2.6870000000000003,10.731 c-2.037,7.128 -2.845,14.491 -4.213,21.75 c-1.092,7.305 -1.512,14.689 -2.298,22.045 c-0.2230000000000001,2.021 1.241,3.832 3.255,4.042 c2.023,0.21000000000000008 3.8360000000000003,-1.245 4.06,-3.266 c0,0 -0.009000000000000008,-0.04400000000000003 0,-0.06600000000000004 l0.03000000000000002,-0.3820000000000002 c0.5860000000000003,-7.142 0.8130000000000003,-14.359 1.6910000000000007,-21.494 c1.1360000000000001,-7.079 1.738,-14.29 3.535,-21.261 l2.35,-10.527 l3.08,-10.333 c0.543,-1.719 0.988,-3.467 1.5910000000000002,-5.165 l1.901,-5.055 c1.328,-3.345 2.398,-6.7940000000000005 3.918,-10.067 c5.5760000000000005,-13.276 12.72,-25.896 20.938,-37.75 c8.275,-11.772 17.775,-22.947 28.799,-32.062 l0.08700000000000006,-0.07400000000000002 c0.5990000000000003,-0.49400000000000016 0.6770000000000006,-1.374 0.18800000000000008,-1.971 C997.4449111976623,330.3221429252624 996.5839111976622,330.23914292526246 995.9899111976624,330.70014292526247 z" id="svg_45" fill="#38bdf8" fill-opacity="1"/>
				<path d="M976.3719111976623,419.4811429252625 c0,0 -17.29,28.584 -43.146,15.018 C933.2259111976623,434.49914292526245 941.8629111976624,409.05614292526246 976.3719111976623,419.4811429252625 z" id="svg_46" fill="#38bdf8" fill-opacity="1"/>
				<path d="M992.4859111976623,385.27214292526253 c0,0 -19.934,26.821 -44.366,10.871 C948.1199111976623,396.14314292526245 959.1269111976624,371.62914292526244 992.4859111976623,385.27214292526253 z" id="svg_47" fill="#38bdf8" fill-opacity="1"/>
				<path d="M1014.1169111976624,350.89514292526246 c0,0 -19.801,26.915 -44.313,11.063 C969.8049111976624,361.95814292526245 980.6929111976624,337.39814292526245 1014.1169111976624,350.89514292526246 z" id="svg_48" fill="#38bdf8" fill-opacity="1"/>
				<path d="M1040.5079111976625,321.9831429252624 c0,0 -19.806,26.913 -44.334,11.081 C996.1739111976624,333.06414292526244 1007.0699111976623,308.4931429252625 1040.5079111976625,321.9831429252624 z" id="svg_49" fill="#38bdf8" fill-opacity="1"/>
				<path d="M909.9199111976624,394.4451429252625 c0,0 -5.965,32.875 22.379,39.824 C932.2989111976624,434.26914292526243 942.6889111976624,409.4931429252625 909.9199111976624,394.4451429252625 z" id="svg_50" fill="#38bdf8" fill-opacity="1"/>
				<path d="M934.8239111976624,352.43714292526244 c0,0 -12.894,30.812 13.296,43.706 C948.1199111976623,396.14314292526245 963.5919111976624,374.17414292526246 934.8239111976624,352.43714292526244 z" id="svg_51" fill="#38bdf8" fill-opacity="1"/>
				<path d="M960.9879111976624,317.1491429252624 c0,0 -15.948,29.361 8.816,44.809 C969.8049111976624,361.95814292526245 987.4039111976624,341.66314292526243 960.9879111976624,317.1491429252624 z" id="svg_52" fill="#38bdf8" fill-opacity="1"/>
				<path d="M989.9509111976624,286.0481429252624 c0,0 -17.332,28.564 6.682,45.189 C996.6329111976625,331.23714292526245 1015.1759111976623,311.80114292526247 989.9509111976624,286.0481429252624 z" id="svg_53" fill="#38bdf8" fill-opacity="1"/>
			</g>
			<g id="svg_54" fill="#38bdf8" fill-opacity="1">
				<polygon points="156.86490964889526,877.7711181640625 156.89091062545776,877.7451171875 156.88689756393433,877.7401123046875 " id="svg_55" fill="#38bdf8" fill-opacity="1"/>
				<polygon points="225.570903301239,941.6890869140625 225.5799059867859,941.6751098632812 225.5799059867859,941.671142578125 " id="svg_56" fill="#38bdf8" fill-opacity="1"/>
			</g>
		</g>
	</g>
	<path d="M878.2169111976624,404.71114292526244 c-35.54,-49.587 -81.863,-78.358 -144.684,-56.82 c-62.83,21.536 -82.139,83.822 -107.021,121.341 c-3.442,5.197 -6.702,9.586 -9.861,13.407 c-17.307,-30.104 -43.74,-63.634 -82.408,-100.877 c-145.4,-140.041 -286.873,-215.64 -308.666,-222.057 c-39.695,-11.694 -14.31,46.288 9.695,69.354 c0,0 -68.978,-7.476 11.867,78.352 c0,0 -50.348,-3.797 21.146,75.774 c0,0 -40.896,12.516 15.594,77.174 c0,0 -46.982,36.931 24.992,134.321 c1.787,2.414 3.6180000000000003,4.809 5.479,7.188 c0.29700000000000015,0.38100000000000017 0.5900000000000003,0.7630000000000003 0.8920000000000003,1.143 c1.77,2.242 3.574,4.464 5.408,6.668 c0.3940000000000003,0.47400000000000014 0.787,0.9460000000000003 1.185,1.4180000000000001 c1.835,2.183 3.696,4.345 5.593,6.488 c0.35800000000000015,0.406 0.7250000000000003,0.809 1.084,1.213 c1.931,2.16 3.8840000000000003,4.303 5.872,6.418 c0.1610000000000001,0.16800000000000012 0.31800000000000017,0.3360000000000003 0.47600000000000015,0.502 c0.28400000000000014,0.30200000000000016 0.5820000000000003,0.5930000000000003 0.8700000000000003,0.8940000000000003 C206.28991119766235,721.4981429252624 120.63491119766235,823.2771429252624 120.63491119766235,823.2771429252624 c11.247,20.584 23.502,38.594 36.252,54.463 c0.42400000000000015,-0.7250000000000003 58.08,-98.125 158.264,-165.483 L156.89091119766235,877.7451429252625 c22.196,27.618 45.917,48.494 68.68900000000001,63.927 c0.12300000000000004,-0.30700000000000016 41.866,-102.425 97.182,-158.823 l-97.182,158.827 c56.617,38.375 107.213,43.291 112.945,35.265 c9.359,-13.108 40.271,-183.203 40.271,-183.203 s149.6,78.293 264.773,32.489 c18.813,-7.479 34.517,-17.049 47.773,-27.915 l0.04300000000000003,0.09200000000000008 c110.516,-76.999 119.705,-219.939 123.93,-268.355 c4.238,-48.414 69.756,-64.593 69.756,-64.593 c25.031,-3.065 61.061,-8.413 64.525,-14.113 c0.17400000000000004,-0.264 0.274,-0.531 0.28300000000000014,-0.797 C950.2619111976624,444.25314292526247 897.7029111976624,415.2451429252624 878.2169111976624,404.71114292526244 zM256.7849111976624,246.14214292526245 c10.26,7.216 20.139,14.864 29.934,22.616 c9.854,7.694 19.413,15.72 28.96,23.747 c9.46,8.129 18.937,16.269 28.12,24.746 l13.755,12.721 c4.448,4.404 9.022,8.649000000000001 13.365,13.182 c-5.151,-3.563 -10.093,-7.386 -15.152,-11.081 l-14.776,-11.52 c-9.857,-7.709 -19.4,-15.731 -28.947,-23.76 c-9.477,-8.142 -18.936,-16.287 -28.107,-24.745 C274.70391119766236,263.61414292526246 265.55091119766234,255.12314292526247 256.7849111976624,246.14214292526245 zM333.5449111976624,508.8391429252624 c-9.971,-9.851 -19.658,-20.009 -28.151,-31.398 c11.587,8.216 21.978,17.632 32.092,27.369 c9.979,9.853 19.671,20.009 28.165,31.396 C354.02691119766234,528.0201429252625 343.65491119766233,518.5741429252624 333.5449111976624,508.8391429252624 zM329.48491119766237,441.00614292526245 c-13.938,-13.169 -27.613,-26.628 -40.105,-41.349 c15.52,11.474 29.877,24.195 43.964,37.233 c13.946,13.156 27.613,26.6 40.105,41.32 C357.91191119766233,466.76514292526247 343.55491119766236,454.03114292526243 329.48491119766237,441.00614292526245 zM359.47691119766233,407.80014292526243 l-13.619,-11.17 c-9.08,-7.46 -17.875,-15.227 -26.657,-23.021 c-8.69,-7.882 -17.372,-15.78 -25.757,-23.994 c-8.45,-8.171 -16.821,-16.429 -24.791,-25.121 c9.521,6.984 18.617,14.401 27.657,21.905 c9.084,7.445 17.879,15.242 26.657,23.006 c8.69,7.897 17.385,15.792 25.774,23.994 l12.592,12.343 c4.06,4.258 8.245,8.389 12.182,12.78 C368.72191119766234,415.07314292526246 364.17291119766236,411.3631429252624 359.47691119766233,407.80014292526243 zM780.6499111976624,415.27214292526253 c-21.951,0 -21.951,-34.045 0,-34.045 S802.6019111976624,415.27214292526253 780.6499111976624,415.27214292526253 z" id="svg_57" fill="#38bdf8" fill-opacity="1"/>
</g></g></svg>