<svg xmlns="http://www.w3.org/2000/svg" xmlns:xlink="http://www.w3.org/1999/xlink" version="1.1" width="1204" height="1204" enable-background="new 0 0 1204 1204" xml:space="preserve"><rect id="backgroundrect" width="100%" height="100%" x="0" y="0" fill="none" stroke="none"/>




<g class="currentLayer" style=""><title>Layer 1</title><g id="svg_40" class="selected" fill="#2dd4b5" fill-opacity="1">
	<g id="svg_41" fill="#2dd4b5" fill-opacity="1">
		<g id="svg_42" fill="#2dd4b5" fill-opacity="1">
			<path d="M736.5125650830204,83.7167606174793 c0,0 34.44735363419811,-9.830202820969308 14.618221937156475,30.18996985287866 C707.3665432000713,138.9943631674893 670.897025031736,164.96989777856666 636.2619772639491,197.95535602325927 c-25.15032888578726,23.9524752171415 -50.22599112719073,46.89570410006216 -68.47547803570926,75.53690162104667 c-7.020719617334431,-13.84565930909421 -15.714931089986257,-26.937808911643454 -25.95111152142624,-38.95286368691501 c3.804573788142787,-5.610548464317496 7.924254515886886,-11.380279931576096 12.381647681073261,-17.31637068469527 C634.6665771284462,110.10591008046097 720.5147227624792,44.77629232833424 734.3903883463139,38.073644081543755 C759.6578548118226,25.843953208044272 749.8107629492816,66.06245224621233 736.5125650830204,83.7167606174793 " id="svg_43" fill="#2dd4b5" fill-opacity="1"/>
			<g id="svg_44" fill="#2dd4b5" fill-opacity="1">
				<path d="M308.0034330247998,184.47894908983997 c8.01810158268119,5.997415352612879 14.746319758255272,13.180222165651905 20.768287380070767,20.889507189237936 c5.958946233895231,7.737337765907617 11.184926325674365,16.026596927258563 15.341597868067314,24.801886159064917 c1.1172596054124755,2.1496229290611804 1.9337975880315237,4.429723729385559 2.930494538292194,6.645890372790969 l1.4152411678615413,3.3506717340389143 c0.4671802887132502,1.1188477460819195 0.8021526658111637,2.276186464186482 1.2124767023789587,3.4119963335326173 l2.3585069414072057,6.874226647501565 l1.840635536323312,7.000790182626866 c1.3953757303649377,4.650231331820362 1.9488679199255,9.453774162374982 2.885968557696357,14.189468499872735 c0.7480364740100698,4.765704247888293 1.0357428101677897,9.582947254925548 1.5741646678343766,14.381923359985956 c0.1527583641980277,1.318478889114612 -0.8501037218374503,2.499956013402866 -2.229724105222323,2.6369577782292235 c-1.3857855191596795,0.13700176482635787 -2.6277178702405006,-0.8122247486134051 -2.781161249524615,-2.1307036377280166 c0,0 0.0061651357748083125,-0.02870513167790365 0,-0.043057697516855474 l-0.020550452582694338,-0.24921273411270858 c-0.4014188404486275,-4.659364782808785 -0.5569172649910135,-9.36765876734127 -1.158360510577864,-14.022456824655844 c-0.7781771377980214,-4.618264253360879 -1.1905562196240866,-9.322643901755466 -2.4215283293274688,-13.87045010463422 l-1.6097854523110464,-6.8677027539384055 l-2.109846465156606,-6.741139218813104 c-0.3719631917467652,-1.1214573035071835 -0.6767949050567302,-2.26183389834753 -1.089859001968884,-3.369591025372078 l-1.3022136786567236,-3.2978281961773193 c-0.909700034327264,-2.1822423968769797 -1.6426661764433579,-4.432333286810823 -2.6838891072998625,-6.567603650033052 c-3.8196441200367643,-8.661121094451056 -8.713391895062342,-16.894274771158823 -14.342845872548377,-24.627698200928545 c-5.668499837393154,-7.679927502551809 -12.176143155246315,-14.970378559382974 -19.72774946430035,-20.916907542203205 l-0.05959631248981352,-0.048276812367383175 c-0.41032403656779465,-0.322280342020099 -0.46375521328280117,-0.8963829755781676 -0.12878283618488423,-1.2858594212988126 C307.0067360745393,184.23234591315241 307.59653406366266,184.1781975965783 308.0034330247998,184.47894908983997 z" id="svg_45" fill="#2dd4b5" fill-opacity="1"/>
				<path d="M321.44205898370984,242.39872853292968 c0,0 11.84391083849276,18.647897360936202 29.55566090443081,9.797583353153508 C350.9977198881407,252.19631188608318 345.08124458958264,235.5975694933355 321.44205898370984,242.39872853292968 z" id="svg_46" fill="#2dd4b5" fill-opacity="1"/>
				<path d="M310.4037258864586,220.08114104271604 c0,0 13.65509072611421,17.497734925751118 30.391379309460373,7.092124692511105 C340.79510519591884,227.17326573522715 333.2551441433286,211.18059305449697 310.4037258864586,220.08114104271604 z" id="svg_47" fill="#2dd4b5" fill-opacity="1"/>
				<path d="M295.58616455925005,197.65395214064128 c0,0 13.563983719664266,17.559059525244816 30.35507350989761,7.217383448923776 C325.9405530540614,204.87133558956506 318.48210879671586,188.84865299844435 295.58616455925005,197.65395214064128 z" id="svg_48" fill="#2dd4b5" fill-opacity="1"/>
				<path d="M277.5079314222539,178.79207107083343 c0,0 13.567408795094714,17.557754746532183 30.3694588267055,7.229126457337462 C307.8773902489594,186.02119752817092 300.4134658709247,169.99133865413071 277.5079314222539,178.79207107083343 z" id="svg_49" fill="#2dd4b5" fill-opacity="1"/>
				<path d="M366.9626814845497,226.06550860820258 c0,0 4.086114988525697,21.447300088888106 -15.329952611603789,25.980753725927904 C351.63272887294573,252.04626233413046 344.51542212847255,235.88266364204551 366.9626814845497,226.06550860820258 z" id="svg_50" fill="#2dd4b5" fill-opacity="1"/>
				<path d="M349.903065780569,198.65993652808052 c0,0 8.83258452004197,20.101420846808224 -9.107960584650069,28.513329207146572 C340.79510519591884,227.17326573522715 330.1965517839375,212.84092396632118 349.903065780569,198.65993652808052 z" id="svg_51" fill="#2dd4b5" fill-opacity="1"/>
				<path d="M331.9803310681154,175.6384209224019 c0,0 10.92462059296024,19.154803890793723 -6.039092998967737,29.232914667163104 C325.9405530540614,204.87133558956506 313.8849725539672,191.6310936031321 331.9803310681154,175.6384209224019 z" id="svg_52" fill="#2dd4b5" fill-opacity="1"/>
				<path d="M312.1402391296963,155.34845955161845 c0,0 11.872681472108532,18.63484957380988 -4.577270805252089,29.480822622563178 C307.56296832444434,184.8292821741816 294.86073358308107,172.14944264482403 312.1402391296963,155.34845955161845 z" id="svg_53" fill="#2dd4b5" fill-opacity="1"/>
			</g>
			<g id="svg_54" fill="#2dd4b5" fill-opacity="1">
				<polygon points="882.8167274890438,541.3822352499233 882.7988527922716,541.3652427836973 882.8015554955637,541.362029662811 " id="svg_55" fill="#2dd4b5" fill-opacity="1"/>
				<polygon points="835.7519752120279,583.0816237867807 835.7458941296209,583.0724169596256 835.7458941296209,583.0700071189608 " id="svg_56" fill="#2dd4b5" fill-opacity="1"/>
			</g>
		</g>
	</g>
	<path d="M388.6797147588549,232.76293774014255 c24.34543615963173,-32.350031011640894 56.07738999256985,-51.1199251822082 99.1107227158176,-37.06876322587444 c43.03949785902256,14.049857177621119 56.266454156330646,54.68458062511875 73.3109995284172,79.16157688473831 c2.357821926321117,3.3904674847741894 4.590971106973887,6.253804369645061 6.754933763931585,8.74658410012845 c11.855556094956283,-19.6395291825365 29.962559865568153,-41.514144299811576 56.4507232144888,-65.81108109708792 c99.60119351745792,-91.36125784784727 196.51233279184115,-140.68124079597965 211.44086656299632,-144.86762329545934 c27.19167384233489,-7.6290411327591645 9.802565881945137,30.197798525154454 -6.641221259640677,45.245811417939024 c0,0 47.25097060830269,-4.877262827818328 -8.129074026627737,51.11601084607029 c0,0 34.489139554449594,-2.477122385931807 -14.485329010455056,49.43415108548768 c0,0 28.014376960728743,8.165305183650906 -10.682125252484449,50.347496184330055 c0,0 32.183378774671304,24.09339131810575 -17.119897031556448,87.62959072971981 c-1.224121958842485,1.5748679061467963 -2.4783845814729215,3.137340414523586 -3.753197656686052,4.689374693199322 c-0.20344948056867307,0.24856034475639244 -0.40415890079298666,0.4977730788691007 -0.6110334567921103,0.745681034269174 c-1.2124767023789587,1.4626569368604454 -2.4482439176849686,2.9122660865945713 -3.7045615855736753,4.350132227915009 c-0.2698959439193853,0.3092325548937789 -0.5391068727526788,0.6171603310749258 -0.8117428770164214,0.9250881072560713 c-1.2570026829747962,1.424165964837802 -2.5318157581879284,2.8346317531929683 -3.831289376500289,4.23270214377813 c-0.24523540082015133,0.2648700786642913 -0.49663593741511125,0.5277829892596353 -0.7425563533213507,0.7913482892112939 c-1.3227641312394178,1.4091610096425347 -2.6605985943728108,2.807231400227696 -4.022408585519345,4.1870348888360125 c-0.11028742886045954,0.10960141186108657 -0.2178347973765596,0.21920282372217303 -0.32606718097874854,0.3274994568706264 c-0.19454428444950567,0.1970215856074289 -0.39867878010426844,0.3868668882953815 -0.5959631248981337,0.5832360845464953 C848.9598465099201,439.43140475941544 907.6348137089427,505.8309410559004 907.6348137089427,505.8309410559004 c-7.704364673252058,13.428782510408297 -16.099224553282646,25.17831481765924 -24.833166900927676,35.53108151303765 c-0.2904463965020785,-0.47298228332909203 -39.78567620009598,-64.01570558850632 -108.4132275849172,-107.95934785123863 L882.798906747671,541.3652845157195 c-15.204594850849352,18.017689242734956 -31.453837707985663,31.636969445187514 -47.05300124842274,41.70529438121216 c-0.08425685558904641,-0.2002835323890093 -28.678841594235852,-66.82097982066506 -66.5711360963796,-103.61443473817417 l66.5711360963796,103.61704429559941 c-38.783499129146584,25.035441548626036 -73.44252242494646,28.242587624275437 -77.36902889841323,23.006510650483314 c-6.411056190714501,-8.551519682589971 -27.58624253192261,-119.51968724515794 -27.58624253192261,-119.51968724515794 s-102.47825687903509,51.07751987404765 -181.37349938925644,21.19547779735013 c-12.887188814607534,-4.879219995887273 -23.644665726561865,-11.122586135831277 -32.725225707768345,-18.211448881560806 l-0.029455648701861847,0.060019820781071265 c-75.7051272543011,-50.233328046974755 -81.99973088038033,-143.48586263878207 -84.89391961910977,-175.07194571417696 c-2.9030939348486053,-31.58477829668224 -47.78391234528057,-42.139785692518615 -47.78391234528057,-42.139785692518615 c-17.146612619913952,-1.9995733771085031 -41.82770617172969,-5.488551654686408 -44.20059842994479,-9.207170985687537 c-0.11919262497962667,-0.17223079006742104 -0.1876941335886073,-0.3464187482037903 -0.19385926936341577,-0.5199543169838428 C339.3278028815145,258.5597176675893 375.3315107913088,239.63520721957508 388.6797147588549,232.76293774014255 zM814.3700097378158,129.3142098984726 c-7.02825478328142,4.707641595176169 -13.79551881876262,9.697115392280844 -20.505241587012275,14.754437682442381 c-6.750138658328958,5.019483707495213 -13.298197866261418,10.255560681287333 -19.838036893160805,15.492290044435764 c-6.480242714409575,5.3032730774926655 -12.972130685282671,10.613722437904807 -19.262624220845368,16.14402701139544 l-9.422382509165292,8.299045001695681 c-3.0469471029274624,2.8731227252156106 -6.180206106702236,5.64251554277698 -9.15522662559027,8.599796494957353 c3.5285127084485937,-2.324463276553865 6.913857263904419,-4.818547785749887 10.379348584432751,-7.229126457337462 l10.121782912062985,-7.515525384760181 c6.752193703587225,-5.029269547839951 13.28929267014225,-10.262736964206807 19.829131697041635,-15.500771106067873 c6.491887970873099,-5.3117541391247745 12.971445670196582,-10.625465446318497 19.2537190247262,-16.143374622039122 C802.0952244101724,140.71275673202555 808.3651674931525,135.17331870754657 814.3700097378158,129.3142098984726 zM761.788251729562,300.69493663461367 c6.830285423401463,-6.426687549068799 13.46602656235342,-13.053658630526606 19.283859688514152,-20.483721009609393 c-7.93726980252259,5.360030951492156 -15.055261562081775,11.502929130563501 -21.98350414279408,17.855244293012277 c-6.835765544090181,6.427992327781429 -13.474931758472588,13.053658630526606 -19.293449899719405,20.482416230896757 C747.7577727362708,313.20841687811077 754.862749209194,307.04594701834975 761.788251729562,300.69493663461367 zM764.5694129790867,256.4414094276313 c9.547740269919727,-8.591315433325244 18.915321572197836,-17.37182377998213 27.4725300276317,-26.975647494309786 c-10.631434136113802,7.485515474369646 -20.466195727105156,15.784560476065328 -30.116003244852266,24.290412903713175 c-9.553220390608447,8.582834371693137 -18.915321572197836,17.353556878005282 -27.4725300276317,26.956728202976624 C745.0964891268117,273.24630685697485 754.9312507178032,264.9387807936471 764.5694129790867,256.4414094276313 zM744.0244405170812,234.7781684618026 l9.329220457457078,-7.287189110049585 c6.219936981695447,-4.866824598117271 12.244644663855297,-9.93393272862355 18.26044714989598,-15.01865537175036 c5.952781098120421,-5.142132906482617 11.900082075552124,-10.29470404266629 17.643933572415154,-15.65343021544581 c5.788377477458869,-5.330673430457938 11.52263876311664,-10.718104734915366 16.982208999252403,-16.388673020013933 c-6.5220286346610505,4.5562872645108605 -12.752925857733935,9.395059120306543 -18.945462235985786,14.290588850101715 c-6.2226770420398045,4.857038757772531 -12.247384724199659,9.943718568968288 -18.26044714989598,15.00886953140562 c-5.952781098120421,5.151918746827357 -11.908987271671291,10.302532714942084 -17.65557882887868,15.65343021544581 l-8.625709964042848,8.05244182500824 c-2.781161249524615,2.777873879193477 -5.647949384810457,5.472894310134824 -8.344853778746026,8.337535973718326 C737.6914760461809,239.52299625028877 740.8076096728034,237.10263173835645 744.0244405170812,234.7781684618026 zM455.51458166337903,239.6528217321957 c15.036766154757354,0 15.036766154757354,-22.21059563577781 0,-22.21059563577781 S440.4771304935355,239.6528217321957 455.51458166337903,239.6528217321957 z" id="svg_57" fill="#2dd4b5" fill-opacity="1"/>
</g></g></svg>