<?xml version="1.0" encoding="utf-8"?>
<svg width="525px" height="419px" viewBox="0 0 525 419" version="1.1" xmlns:xlink="http://www.w3.org/1999/xlink" xmlns="http://www.w3.org/2000/svg">
  <defs>
    <path d="M0 0L524.67 0L524.67 418.271L0 418.271L0 0Z" id="path_1" />
    <clipPath id="mask_1">
      <use xlink:href="#path_1" />
    </clipPath>
  </defs>
  <g id="errors">
    <path d="M0 0L524.67 0L524.67 418.271L0 418.271L0 0Z" id="Background" fill="none" fill-rule="evenodd" stroke="none" />
    <g clip-path="url(#mask_1)">
      <path d="M1.68817 83.4261C3.75415 83.5548 4.89508 80.9876 3.33154 79.4922L3.17584 78.874C3.19623 78.8247 3.21674 78.7753 3.23737 78.7261C4.46948 75.786 7.86282 74.3941 10.8087 75.612C20.123 79.4629 10.2891 88.3119 11.0283 94.2998C11.2874 96.3665 19.3831 96.4801 18.9251 98.5084C23.23 89.0963 25.4935 78.8195 25.4899 68.4853C25.489 65.8888 25.346 63.2923 25.0545 60.7025C24.8148 58.584 24.4847 56.4786 24.0576 54.3925C21.748 43.1161 16.7515 32.3768 9.54678 23.4079C6.08417 21.5166 8.19604 18.5577 6.45093 15.0124C5.82398 13.7337 0.233002 13.705 0 12.3035C0.250183 12.3362 3.86435 8.58249 2.6705 6.72681C1.88495 5.50574 2.12946 3.9505 3.13861 2.90665C3.23749 2.80435 3.33096 2.69635 3.41656 2.58017C6.39749 -1.46426 10.5066 -0.759674 12.6535 4.73422C17.2365 7.04529 17.2822 10.8807 14.4718 14.5704C12.6838 16.9178 12.4392 20.0934 10.8705 22.6064C11.0321 22.8131 11.2001 23.0133 11.3617 23.2199C14.324 27.0168 16.8865 31.098 19.0469 35.3859C18.4351 30.6199 19.334 24.8776 20.8684 21.1756C22.6277 16.9273 25.9379 13.3535 28.8372 9.67899C32.3 5.29034 39.3477 7.28192 39.9601 12.8385C39.966 12.8919 39.9717 12.9452 39.9774 12.9985C39.5485 13.2407 39.1284 13.4979 38.7181 13.7695C36.3793 15.3175 37.1898 18.9439 39.962 19.3702L40.0248 19.3798C39.8702 20.9236 34.3922 25.7866 34.0052 27.2917C37.7103 41.6001 34.938 43.4892 23.5389 43.7287L22.9407 44.5809C24.0209 47.6867 24.8903 50.867 25.5431 54.0883C26.1577 57.0786 26.5851 60.1012 26.825 63.1368C27.1235 66.9667 27.099 70.8163 26.7773 74.6401L26.7967 74.5045C27.6154 70.293 29.9006 66.3588 33.2195 63.632C38.1637 59.5676 45.1504 58.0692 50.4847 54.8017C53.0525 53.2289 56.3443 55.2592 55.8971 58.2369L55.8754 58.3795C55.0811 58.7027 54.3062 59.0776 53.5571 59.4977C53.1279 59.7401 52.7074 59.9975 52.2968 60.2693C49.9576 61.8178 50.7688 65.4446 53.5418 65.8694L53.6046 65.879C53.6498 65.8855 53.6885 65.8919 53.7337 65.8984C52.372 69.1347 39.3981 73.6999 37.0222 76.2907C34.7119 88.7887 35.8469 88.4167 25.2114 84.7811L25.205 84.7811C24.0441 89.8452 22.3472 94.7933 20.1656 99.509L2.14545 99.5152C2.08075 99.315 2.02255 99.1083 1.96436 98.9081C3.6308 99.011 5.31006 98.9135 6.95053 98.6094C5.61298 96.9692 4.27545 95.3162 2.93787 93.6761C2.90558 93.6439 2.87967 93.6116 2.85385 93.5793L2.8335 93.5541L0.97818 87.4469C1.12463 86.0921 1.36353 84.7486 1.68777 83.4264L1.68826 83.426L1.68826 83.4261L1.68817 83.4261Z" transform="translate(440.48587 317.0511)" id="Shape" fill="#FFFFFF" fill-rule="evenodd" stroke="none" />
      <path d="M181.659 189.313L22.202 189.368C14.1913 189.371 7.0155 185.231 3.00774 178.295C1.00361 174.826 0.00131989 171.022 0 167.216C-0.00131989 163.411 0.998817 159.605 3.00007 156.135L82.6779 11.0862C86.6814 4.14685 93.8543 0.00276184 101.865 0C109.876 -0.00276184 117.051 4.13635 121.06 11.073L200.848 156.085C202.847 159.544 203.847 163.345 203.847 167.148C203.847 170.951 202.847 174.757 200.846 178.227C196.843 185.165 189.67 189.31 181.659 189.313L181.659 189.313L181.659 189.313ZM2.00438 167.213C2.00412 170.677 19.5997 163.213 21.4225 166.368C25.0688 172.678 14.9132 187.37 22.2013 187.368C22.2013 187.368 195.471 183.54 199.113 177.227C200.934 174.071 201.844 170.608 201.843 167.146C201.842 163.684 200.929 160.223 199.106 157.067L119.317 12.0555C115.681 5.76328 109.154 1.99747 101.866 1.99998C94.581 2.0025 2.00464 163.749 2.00437 167.213L2.00439 167.213L2.00438 167.213Z" transform="translate(70.08542 227.10721)" id="Shape" fill="#3F3D56" fill-rule="evenodd" stroke="none" />
      <path d="M0.0315552 25.3782C-1.96707 29.3789 91.6453 28.1494 92.7521 28.149C92.7521 28.149 119.064 27.5677 119.617 26.6091C119.893 26.1298 120.032 25.6039 120.031 25.0782C120.031 24.5525 119.893 24.0269 119.616 23.5477L107.5 1.52698C106.947 0.571472 105.956 -0.000396729 104.85 0C104.803 3.05176e-05 104.736 0.0409241 104.648 0.119324C88.4845 14.5632 68.565 24.1117 46.8907 24.434C23.8437 24.7767 0.158554 25.1239 0.0315399 25.3782L0.0315552 25.3782L0.0315552 25.3782Z" transform="translate(253.48366 389.04117)" id="Shape" fill="#3F3D56" fill-rule="evenodd" stroke="none" />
      <path d="M1.38283e-05 1.37106C0.000243828 2.0311 0.530454 2.56088 1.19048 2.56064L523.48 2.37997C524.14 2.37973 524.67 1.84961 524.67 1.18958C524.67 0.529602 524.14 -0.000244141 523.48 0L1.18965 0.180664C0.52962 0.180908 -0.000229955 0.71109 0 1.37106L1.38283e-05 1.37106Z" transform="translate(0 415.71033)" id="Shape" fill="#CCCCCC" fill-rule="evenodd" stroke="none" />
      <g id="Group" transform="translate(372.45993 376.41824)">
        <path d="M13.3594 34.8872L4.3147 34.8894L0 0.00369263L13.3492 0L13.3594 34.8872L13.3594 34.8872Z" transform="translate(18.05835 0)" id="Polygon" fill="#A0616A" fill-rule="evenodd" stroke="none" />
        <path d="M0.429321 10.2119L0.429321 10.2119C0.147858 10.6863 -0.000183105 12.2172 0 12.7688L0 12.7688C0.000579834 14.4642 1.37543 15.8381 3.07089 15.8375L31.0814 15.8278C32.2379 15.8274 33.1753 14.8895 33.1749 13.7328L33.1745 12.5667C33.1745 12.5667 34.5589 9.06125 31.7046 4.74225C31.7046 4.74225 28.1601 8.1261 22.8601 2.8298L21.2968 0L9.99023 8.27505L3.72186 9.04883C2.35046 9.21811 1.13449 9.0235 0.429443 10.2119L0.429321 10.2119L0.429321 10.2119Z" transform="translate(0 24.480804)" id="Shape" fill="#2F2E41" fill-rule="evenodd" stroke="none" />
      </g>
      <g id="Group" transform="translate(339.75604 348.4213)">
        <path d="M23.828 33.0462L15.2604 35.9451L0 4.2789L12.6448 0L23.828 33.0462L23.828 33.0462Z" transform="translate(5.6130676 0)" id="Polygon" fill="#A0616A" fill-rule="evenodd" stroke="none" />
        <path d="M0.0226135 16.3573L0.0226135 16.3573C-0.0920715 16.8969 0.257965 18.3945 0.434784 18.917L0.434784 18.917C0.978332 20.5229 2.72079 21.3841 4.32675 20.8406L30.8587 11.8604C31.9542 11.4896 32.5418 10.3009 32.171 9.20526L31.7971 8.10065C31.7971 8.10065 31.9859 4.33649 27.8987 1.15909C27.8987 1.15909 25.6246 5.49994 18.9076 2.18005L16.5203 0L8.45956 11.4603L2.7692 14.201C1.52426 14.8005 0.309998 15.0057 0.0226746 16.3572L0.022583 16.3573L0.0226135 16.3573Z" transform="translate(0 26.429474)" id="Shape" fill="#2F2E41" fill-rule="evenodd" stroke="none" />
      </g>
      <path d="M38.254 4.41437L20.7106 62.5152L0 114.776L32.7885 189.41L44.946 184.002L30.3986 115.441L60.9063 68.9187L75.1424 214.151L87.3015 213.471L103.791 38.1677L106.142 0L38.254 4.41437L38.254 4.41437Z" transform="translate(316.972 174.67566)" id="Polygon" fill="#2F2E41" fill-rule="evenodd" stroke="none" />
      <path d="M58.1896 0L32.5215 4.73752L30.4989 16.2221L14.9645 23.6581L6.88751 108.101C6.88751 108.101 -6.61682 125.669 4.19336 131.07L73.0941 124.291C73.0941 124.291 76.4673 111.8 73.0893 110.615C69.7113 109.43 69.701 79.5957 69.701 79.5957L85.2167 18.2297L62.2462 10.1314L58.1896 1.52588e-05L58.1896 0Z" transform="translate(350.02014 50.38513)" id="Shape" fill="#E6E6E6" fill-rule="evenodd" stroke="none" />
      <path d="M0 20.7276C0 9.28006 9.28006 0 20.7276 0C32.1751 0 41.4552 9.28006 41.4552 20.7276C41.4552 32.1751 32.1751 41.4552 20.7276 41.4552C9.28006 41.4552 0 32.1751 0 20.7276Z" transform="translate(372.34235 8.708282)" id="Circle" fill="#A0616A" fill-rule="evenodd" stroke="none" />
      <path d="M39.4326 32.5123C37.7786 33.4178 39.3479 37.741 38.3142 38.1147C37.1193 38.5467 32.7626 33.5876 32.7086 28.033C32.6923 26.3518 33.0792 25.5446 32.7071 23.5513C32.2204 20.944 30.7267 17.8688 29.3439 17.9504C28.5243 17.9988 27.7238 19.1576 27.6641 20.1918C27.5804 21.6412 28.9883 22.2117 28.7855 22.9925C28.3992 24.4796 22.4872 25.5063 20.3824 22.9954C18.7323 21.0269 19.9977 17.5707 19.26 17.3937C18.7162 17.2633 18.1324 19.1661 15.9001 21.3163C15.0591 22.1264 13.8083 23.3312 13.0997 22.9979C12.0757 22.5162 12.8197 19.1216 12.5381 19.0766C12.305 19.0394 12.1587 21.4253 10.859 23.5589C9.18936 26.2999 5.74506 28.4126 4.13791 27.4826C3.15326 26.9129 3.07547 25.3266 3.01633 24.1218C2.89182 21.5836 -0.796753 15.7454 0.157501 13.0301C2.0997 7.50384 5.42761 11.3994 6.93271 9.5551C8.97028 7.05841 10.7984 8.40076 14.2141 5.63114C17.5507 2.9255 17.5798 0.206102 19.8141 0.0271422C21.8264 -0.134018 22.542 2.01242 24.8566 1.70601C26.8174 1.44644 27.244 -0.218348 28.7774 0.0240321C30.1813 0.245932 30.2739 1.71252 32.1394 2.26369C33.3304 2.61557 33.5921 2.10626 34.9405 2.26272C37.7461 2.58828 39.6305 5.14355 39.9835 5.62221C41.3443 7.46747 40.8163 8.24562 42.2258 10.1031C43.4414 11.7049 46.1349 11.0247 47.1477 11.8247C50.457 14.4388 51.8789 19.2597 51.9077 24.7543C51.9278 28.5974 51.4266 30.5391 50.3085 35.39C49.4595 39.0734 45.5268 43.8333 43.3587 45.9559C42.7767 46.5256 41.1452 48.1229 39.998 47.6376C38.911 47.1778 38.8781 45.11 38.8766 44.837C38.8717 43.898 39.1218 42.7361 41.1157 39.7944C43.2101 36.7043 44.0421 36.3517 43.9152 35.3117C43.6907 33.4736 40.7509 31.7905 39.4325 32.5123L39.4326 32.5123L39.4326 32.5123Z" transform="translate(367.3634 1.5258789E-05)" id="Shape" fill="#2F2E41" fill-rule="evenodd" stroke="none" />
      <g id="Group" transform="translate(334.03574 73.49768)">
        <path d="M0.109802 28.7541C-0.535339 34.1567 1.72876 38.8692 5.16678 39.2798C8.6048 39.6903 11.9149 35.6434 12.56 30.2408C12.8424 27.8759 12.5673 25.6433 11.8803 23.8457L14.3268 0.918915L3.54337 0L2.27618 22.6989C1.1853 24.2841 0.392181 26.3892 0.109802 28.7541L0.109833 28.7541L0.109802 28.7541Z" transform="translate(0.34902954 123.508)" id="Shape" fill="#A0616A" fill-rule="evenodd" stroke="none" />
        <path d="M31.4552 0C31.4552 0 25.8686 0.0794601 22.1695 7.30383C20.2039 11.1428 9.68741 82.9315 9.68741 82.9315L0 141.74L16.5021 141.823L29.3611 86.1301L40.1784 53.8292L31.4552 0L31.4552 0Z" id="Shape" fill="#E6E6E6" fill-rule="evenodd" stroke="none" />
      </g>
      <path d="M0.648956 27.7102C-0.931274 32.9167 0.473602 37.9525 3.7868 38.9581C7.10001 39.9637 11.067 36.5583 12.6472 31.3517C13.3389 29.0727 13.4585 26.8263 13.0966 24.9364L19.5157 2.79098L9.05923 0L3.84109 22.1273C2.48978 23.4973 1.34067 25.4311 0.648926 27.7102L0.648926 27.7101L0.648956 27.7102Z" transform="translate(411.28064 189.42012)" id="Shape" fill="#A0616A" fill-rule="evenodd" stroke="none" />
      <path d="M18.904 1.92573C18.904 1.92573 27.0081 -4.15675 33.7666 5.29819C40.5251 14.7531 43.254 92.437 43.254 92.437L24.3561 140.405L10.1685 135.682L23.6586 76.9068L0 32.3307L18.904 1.92573L18.904 1.92573L18.904 1.92573Z" transform="translate(404.51166 67.70645)" id="Shape" fill="#E6E6E6" fill-rule="evenodd" stroke="none" />
      <g id="Group" transform="translate(145.47958 238.43146)">
        <path d="M0 73C0 32.6832 32.6832 0 73 0C113.317 0 146 32.6832 146 73C146 113.317 113.317 146 73 146C32.6832 146 0 113.317 0 73Z" id="Circle" fill="#4FC3F7" fill-rule="evenodd" stroke="none" />
        <g id="Group" transform="translate(48.725845 23.628174)">
          <path d="M0 6.70264C0 3.00087 3.00087 0 6.70264 0C10.4044 0 13.4053 3.00087 13.4053 6.70264C13.4053 10.4044 10.4044 13.4053 6.70264 13.4053C3.00087 13.4053 0 10.4044 0 6.70264Z" transform="translate(17.584671 80.71652)" id="Circle" fill="#FFFFFF" fill-rule="evenodd" stroke="none" />
          <path d="M24.2587 4.62183C23.643 8.71301 24.7461 9.56909 24.7522 27.2069C24.7583 44.8447 28.418 68.4926 24.2808 68.4941C20.1435 68.4955 18.6303 19.6913 4.26395 15.3719C-12.6269 10.2934 26.2518 -8.62221 24.2587 4.62183L24.2587 4.62183Z" id="Shape" fill="#FFFFFF" fill-rule="evenodd" stroke="none" />
        </g>
      </g>
      <path d="M77.7792 86.21L71.1839 100.145C79.1572 94.4278 91.611 89.4993 101.521 86.8596C92.2874 82.3992 80.9883 75.2077 74.238 68.0876L78.0314 82.812C33.5574 73.7534 1.62 39.6353 1.60648 0.552704L0 0C0.0141182 40.8228 31.5097 76.9612 77.7792 86.21L77.7792 86.21Z" transform="translate(42.723938 262.49222)" id="Shape" fill="#3F3D56" fill-rule="evenodd" stroke="none" />
    </g>
  </g>
</svg>