<svg xmlns="http://www.w3.org/2000/svg" xmlns:xlink="http://www.w3.org/1999/xlink" data-name="Layer 1" width="250" height="632.370361328125"><rect id="backgroundrect" width="100%" height="100%" x="0" y="0" fill="none" stroke="none"/><title>heatmap</title><g class="currentLayer" style=""><title>Layer 1</title><path d="M198.4327627832031,191.57842081970216 s30.778950000000002,-14.70576 30.28646,-2.00541 s-31.02521,21.05594 -31.02521,21.05594 z" fill="#ffb9b9" id="svg_29" class=""/><path d="M181.5461927832032,299.0389208197021 S196.0672627832031,334.58048081970213 201.4324527832032,360.2274808197021 s13.53608,60.94229 3.02582,85.97362 s-40.39191,98.59934 -40.69972,106.53706 s2.55946,15.99857 -3.79071,15.752320000000001 s-40.90677,-11.12588 -42.30963,-15.95007 s11.79,-17.032 11.79,-17.032 l32.57732,-102.08224 L128.0360527832031,366.92087081970215 l-24.51648,99.215 l-4.80184,123.82843 s-23.56691,-7.2736 -26.98824,-1.04655 c0,0 -10.55875,-14.71883 -11.90005,-21.13057 s4.98653,-128.59106 4.98653,-128.59106 s-21.63236,-139.16289 -4.16937,-138.4857 S146.5101727832032,259.52193081970216 181.5461927832032,299.0389208197021 z" fill="#2f2e41" id="svg_30" class=""/><path d="M160.21408278320314,562.1402808197022 s16.10862,35.60315 17.63461,37.25226 s12.02317,17.95548 4.08545,17.64767 s-26.68044,-8.98428 -40.47584,-22.23869 s-31.98406,-36.21877 -30.33495,-37.74475 s12.9466,-5.85768 12.9466,-5.85768 z" fill="#2f2e41" id="svg_31" class=""/><path d="M95.85046278320311,581.9034208197021 s0.97192,15.937 3.90076,22.4103 s2.55947,15.99856 -5.37825,15.69075 s-28.45267,-4.2832 -28.45267,-4.2832 s-1.21817,-9.58683 0.4309300000000002,-11.11281 s8.67647,-18.74272 5.68607,-23.62847 S95.85046278320311,581.9034208197021 95.85046278320311,581.9034208197021 z" fill="#2f2e41" id="svg_32" class=""/><path d="M84.1072427832031,64.72038081970214 s-16.922,26.37263 -23.51842,32.47656 s11.9616,19.543 11.9616,19.543 l33.2153,4.46789 s-0.4178600000000003,-30.2249 1.29281,-33.33842 S84.1072427832031,64.72038081970214 84.1072427832031,64.72038081970214 z" fill="#ffb9b9" id="svg_33" class=""/><path d="M112.97777278320314,99.22848081970216 s-6.84267,12.45411 -13.19285,12.20786 s-39.1961,-14.2394 -40.599,-19.0636 s-10.87963,34.5566 -10.87963,34.5566 L128.6778527832031,268.37001081970214 l19.60459,-13.549150000000001 l-9.49913,-83.04478 l-7.80153,-44.8206 z" fill="#6c63ff" id="svg_34" class=""/><path d="M56.22146278320315,225.81201081970215 c3.206,6.70666 5.20835,13.70047 4.9307,20.86031 c-0.012310000000000007,0.3175300000000002 -0.024620000000000013,0.6350000000000005 -0.05282000000000005,0.9518700000000004 c-0.7605700000000004,14.693290000000001 -6.17341,31.68645 -8.11534,44.04442 c-1.40908,8.86485 -1.00808,15.33552 4.1797,16.85636 c12.57723,3.66759 -1.83379,6.28862 46.826,22.48494 s57.15159,2.21623 57.27471,-0.95886 s-6.89116,-27.29606 -5.24206,-28.822 s23.07442,19.974 29.54772,17.04512 s0.7387400000000007,-19.05053 0.7387400000000007,-19.05053 s-14.58264,-33.954 -14.27483,-41.89176 s-22.08942,-45.37466 -22.08942,-45.37466 L134.7108527832031,112.79070081970215 s-5.85768,-12.9466 -13.73384,-14.84195 s-14.411,2.621 -14.411,2.621 L119.74585278320319,129.69963081970215 l13.90546,51.417 l-2.32629,18.989 s-16.17018,-34.0156 -26.7905,-47.14689 s-33.26379,-44.21805 -33.26379,-44.21805 s-5.28646,-17.83738 -1.2957,-23.16791 c3.99136,-5.34632 -16.64671,-6.14663 -25.4463,15.77118 c-4.66382,11.61641 -12.23581,28.93924 -16.97922,45.068 c-4.22682,14.28852 -6.2234300000000005,27.646 -2.03588,35.28111 C31.91385278320314,193.35696081970212 48.013652783203156,208.68814081970214 56.22146278320315,225.81201081970215 z" fill="#575a89" id="svg_35" class=""/><path d="M25.513592783203137,181.69307081970214 c6.40029,11.66389 22.50006,26.99507 30.70787,44.11894 c2.14378,-7.72349 4.7590900000000005,-15.71476 4.7590900000000005,-15.71476 s10.03082,-53.66869 -19.64,-67.53872 a19.85762,19.85762 0 0 0 -13.79106,3.85343 C23.322652783203125,160.70048081970214 21.326042783203093,174.05799081970213 25.513592783203137,181.69307081970214 z" opacity="0.1" id="svg_36" class=""/><path d="M143.2996527832031,178.31094081970213 l25.15446,7.33517 l34.926,1.35436 l3.593,30.348 L149.57520278320317,221.48248081970218 S135.23885278320313,181.17822081970218 143.2996527832031,178.31094081970213 z" fill="#575a89" id="svg_37" class=""/><path d="M102.28185278320314,280.35048081970217 s33.65163,5.58313 25.971,15.7098 s-37.49194,-0.5197900000000004 -37.49194,-0.5197900000000004 z" fill="#ffb9b9" id="svg_38" class=""/><path d="M61.099342783203156,247.62419081970216 c-0.7605700000000004,14.693290000000001 -6.17341,31.68645 -8.11534,44.04442 c10.72016,10.14608 20.91438,19.09523 24.75621,19.24421 c7.9377200000000006,0.30781000000000036 20.69963,-0.78723 25.4007,0.985 s7.4583,-28.32955 7.4583,-28.32955 s-2.80572,-9.648390000000001 -15.321390000000001,-14.90351 C86.83002278320316,265.10956081970215 70.63685278320315,255.46674081970212 61.099342783203156,247.62419081970216 z" opacity="0.1" id="svg_39" class=""/><path d="M41.709912783203094,133.03327081970212 s-26.86513,-4.22165 -25.41378,40.35271 s-2.83185,73.027 7.97315,81.39568 s45.90258,46.29809 53.8403,46.6059 s20.69964,-0.78724 25.40071,0.985 s7.45829,-28.32954 7.45829,-28.32954 S108.1628527832031,264.39462081970214 95.64720278320311,259.13948081970216 s-42.00182,-23.88779 -41.75558,-30.238 s7.4583,-28.32955 7.4583,-28.32955 S71.38075278320309,146.90330081970217 41.709912783203094,133.03327081970212 z" fill="#575a89" id="svg_40" class=""/><circle cx="107.79730224609375" cy="68.81890678405762" r="34.95222091674805" fill="#ffb9b9" id="svg_41" class=""/><path d="M131.3314827832031,18.722200819702152 a6.74905,6.74905 0 0 0 2.93882,1.47478 a2.09716,2.09716 0 0 0 2.43029,-1.6834500000000001 c0.7996800000000004,1.65841 1.70192,3.42593 3.33461,4.27689 s4.15732,0.13741000000000014 4.39266,-1.6886400000000013 a7.706,7.706 0 0 0 1.77364,3.74392 c1.013,0.9658400000000007 2.85,1.20961 3.7343900000000003,0.12482000000000006 c-0.7150000000000004,3.90745 -0.27369,7.92586 -0.49823,11.89184 s-1.2821,8.170490000000001 -4.27847,10.7784 c-4.36987,3.80334 -10.94108,2.8646700000000003 -16.68929,2.1441 a5.06575,5.06575 0 0 0 -2.61539,0.14307 c-2.15231,0.917 -2.05467,3.9131 -2.08369,6.25243 a17.37275,17.37275 0 0 1 -15.21221,16.49749 a8.70861,8.70861 0 0 1 -6.47244,-1.5796400000000008 c-1.63206,-1.3833600000000001 -2.46572,-3.6380600000000003 -4.33585,-4.67724 c-3.04207,-1.6904000000000003 -6.73153,0.77486 -8.955680000000001,3.45158 s-4.4162,5.96933 -7.86172,6.45932 c-4.55691,0.6480000000000006 -8.02766,-3.996 -9.73047,-8.27217 a48.223,48.223 0 0 1 0.95837,-37.46978 C81.67576278320314,9.848850819702136 114.17903278320318,6.56824081970214 131.3314827832031,18.722200819702152 z" fill="#2f2e41" id="svg_42" class=""/></g></svg>
