<?xml version="1.0" encoding="utf-8"?>
<svg width="951px" height="428px" viewBox="0 0 951 428" version="1.1" xmlns:xlink="http://www.w3.org/1999/xlink" xmlns="http://www.w3.org/2000/svg">
  <defs>
    <path d="M0 0L951 0L951 428L0 428L0 0Z" id="path_1" />
    <clipPath id="mask_1">
      <use xlink:href="#path_1" />
    </clipPath>
  </defs>
  <g id="login">
    <path d="M0 0L951 0L951 428L0 428L0 0Z" id="Background" fill="none" fill-rule="evenodd" stroke="none" />
    <g clip-path="url(#mask_1)">
      <path d="M2.39759 59.902C9.88642 62.5344 18.206 61.0689 24.3446 56.036C32.0316 49.584 34.4446 38.955 36.4026 29.112L42.2026 0L30.0596 8.362C21.3266 14.375 12.3976 20.581 6.35059 29.291C0.303596 38.001 -2.33541 49.891 2.52259 59.315" transform="translate(75.849884 331.06665)" id="b606c935-a134-40cd-80b0-a21a1aa0225b-164" fill="#E6E6E6" fill-rule="evenodd" stroke="none" />
      <path d="M1.91467 58.1614C0.685669 49.2084 -0.578323 40.1414 0.283676 31.0923C1.04968 23.0563 3.50067 15.2073 8.49268 8.77136C11.1422 5.36169 14.3662 2.44025 18.0197 0.138428C18.9727 -0.461609 19.8487 1.04736 18.9007 1.64539C12.5794 5.64044 7.69012 11.5396 4.93768 18.4924C1.89767 26.2244 1.40967 34.6534 1.93767 42.8664C2.25467 47.8334 2.92567 52.7664 3.60266 57.6964C3.71581 58.1594 3.4483 58.6304 2.99265 58.7704C2.52797 58.8958 2.04895 58.6237 1.91866 58.1604L1.91467 58.1614Z" transform="translate(77.37079 368.05328)" id="a422fa29-1efa-4f1e-8f54-a5852f8559f8-165" fill="#F2F2F2" fill-rule="evenodd" stroke="none" />
      <path d="M42.4091 63.8172C34.4304 66.6219 25.5666 65.0605 19.0264 59.6984C10.8367 52.824 8.26843 41.5024 6.17975 31.0165L0 0L12.9377 8.90839C22.2423 15.3148 31.756 21.9271 38.1978 31.2062C44.6397 40.4854 47.45 53.1533 42.2757 63.1942" transform="translate(859.91473 315.7602)" id="e1d169dc-da63-490d-893d-3e04e06c6dbd-166" fill="#E6E6E6" fill-rule="evenodd" stroke="none" />
      <path d="M23.0522 77.0753C24.6806 65.2116 26.356 53.1945 25.211 41.2037C24.1964 30.5544 20.9473 20.1549 14.3327 11.6243C10.8217 7.1058 6.54944 3.23434 1.70801 0.183929C0.445923 -0.612518 -0.716003 1.38748 0.54071 2.18094C8.91791 7.47495 15.3975 15.2925 19.0452 24.5065C23.0738 34.7527 23.7206 45.9224 23.0267 56.8069C22.6072 63.389 21.7159 69.9281 20.8208 76.4594C20.6741 77.0722 21.0273 77.6939 21.6288 77.8819C22.2442 78.0477 22.8785 77.6874 23.0513 77.0739L23.0522 77.0753Z" transform="translate(877.274 342.21268)" id="b7dc7a19-2955-4780-ad93-c52a96f67a65-167" fill="#F2F2F2" fill-rule="evenodd" stroke="none" />
      <path d="M53.3006 19.2974C49.8792 24.4994 43.9915 27.5392 37.7692 27.316C29.9048 26.9429 23.3511 21.4563 17.452 16.2458L0 0.836975L11.5499 0.28418C19.8561 -0.113647 28.3766 -0.486816 36.288 2.07758C44.1995 4.64197 51.4956 10.804 52.942 18.993" transform="translate(835.3045 380.9541)" id="ba9a9309-6361-43cb-a10e-efdc2c0b21e6-168" fill="#E6E6E6" fill-rule="evenodd" stroke="none" />
      <path d="M48.08 35.7989C40.2403 21.9275 31.1476 6.51096 14.8992 1.5834C10.3817 0.218048 5.6449 -0.271088 0.943726 0.142365C-0.538086 0.270416 -0.16803 2.55417 1.31079 2.42697C9.19122 1.77267 17.0565 3.85349 23.5824 8.31906C29.8624 12.5937 34.7522 18.5367 38.8903 24.8382C41.4254 28.6987 43.696 32.7226 45.9667 36.7412C46.6922 38.0256 48.814 37.0981 48.08 35.7989L48.08 35.7989Z" transform="translate(856.84906 390.30875)" id="abb4e2ed-9276-4565-9a98-ba1ebe7a1fe1-169" fill="#F2F2F2" fill-rule="evenodd" stroke="none" />
      <path d="M393 84L0 84L0 0L393 0L393 84Z" transform="translate(289.40155 174.26773)" id="Shape" fill="#FFFFFF" fill-rule="evenodd" stroke="none" />
      <path d="M0 21.3385C0 9.55356 9.55356 0 21.3385 0C33.1234 0 42.6769 9.55356 42.6769 21.3385C42.6769 33.1234 33.1234 42.6769 21.3385 42.6769C9.55356 42.6769 0 33.1234 0 21.3385Z" transform="translate(318.98737 194.92924)" id="Circle" fill="#CCCCCC" fill-rule="evenodd" stroke="none" />
      <path d="M3.5564 0C1.59222 3.05176e-05 0 1.59225 0 3.55643C-3.05176e-05 5.52057 1.59222 7.11282 3.5564 7.11282L263.216 7.11282C265.177 7.10861 266.765 5.51758 266.764 3.5564C266.764 1.59525 265.177 0.00424194 263.216 3.05176e-05L3.5564 0Z" transform="translate(386.0511 202.04208)" id="Shape" fill="#CCCCCC" fill-rule="evenodd" stroke="none" />
      <path d="M3.5639 1.52588e-05C1.59973 -0.00413513 0.00415039 1.58473 0 3.5489C-0.00418091 5.51305 1.58472 7.10866 3.54889 7.11281L167.708 7.11284C169.672 7.11281 171.265 5.52058 171.265 3.55641C171.265 1.59227 169.672 1.52588e-05 167.708 1.52588e-05L3.5639 1.52588e-05Z" transform="translate(386.04358 223.38048)" id="Shape" fill="#CCCCCC" fill-rule="evenodd" stroke="none" />
      <path d="M393 84L0 84L0 0L393 0L393 84ZM6 78L387 78L387 6L6 6L6 78Z" transform="translate(289.40155 174.26773)" id="Shape" fill="#CCCCCC" fill-rule="evenodd" stroke="none" />
      <path d="M0.431335 28.6318C-0.341125 26.3582 -0.0668335 23.8592 1.18042 21.8073C2.42761 19.7553 4.51971 18.3612 6.89362 18.0001L11.342 0L22.9399 0.0353699L16.3009 25.3668C16.651 29.4855 13.8652 33.2151 9.81635 34.0481C5.76758 34.8812 1.73566 32.5542 0.431274 28.6318L0.431335 28.6318Z" transform="translate(792.64215 208.77072)" id="Shape" fill="#FFB7B7" fill-rule="evenodd" stroke="none" />
      <path d="M17.7629 116.312L0 115.081L8.60303 63.8134L3.12842 7.3623L21.0845 0L33.0588 62.6895L33.0261 62.8037L17.7629 116.312Z" transform="translate(794.8916 109.44238)" id="Shape" fill="#3F3D56" fill-rule="evenodd" stroke="none" />
      <path d="M0.0012207 23.9363C-0.0405273 21.5354 0.983276 19.2393 2.79724 17.6659C4.61114 16.0924 7.02887 15.4033 9.39978 15.7839L19.1292 0L30.163 3.57309L16.1102 25.67C15.1866 29.6991 11.3954 32.4007 7.28558 31.9583C3.17572 31.516 0.0462036 28.0696 0.00115967 23.9363L0.0012207 23.9363Z" transform="translate(675.3067 195.80933)" id="Shape" fill="#FFB7B7" fill-rule="evenodd" stroke="none" />
      <path d="M13.944 36.447L4.495 36.447L0 0L13.946 0.000976563L13.944 36.447L13.944 36.447Z" transform="translate(716.142 380.657)" id="Polygon" fill="#FFB7B7" fill-rule="evenodd" stroke="none" />
      <path d="M30.4677 12.2452L0 12.2441L0 11.8587C0 5.31024 5.30878 0.000793457 11.8581 0L11.8596 0L30.4683 0.000732422L30.4677 12.2452Z" transform="translate(702.028 414.0182)" id="Shape" fill="#2F2E41" fill-rule="evenodd" stroke="none" />
      <path d="M13.944 36.447L4.495 36.447L0 0L13.946 0.000976563L13.944 36.447L13.944 36.447Z" transform="translate(782.062 380.657)" id="Polygon" fill="#FFB7B7" fill-rule="evenodd" stroke="none" />
      <path d="M30.4677 12.2452L0 12.2441L0 11.8587C0 5.31024 5.30878 0.000793457 11.8581 0L11.8596 0L30.4683 0.000732422L30.4677 12.2452Z" transform="translate(767.948 414.0182)" id="Shape" fill="#2F2E41" fill-rule="evenodd" stroke="none" />
      <path d="M0 22.4483C0 10.0504 10.0504 0 22.4483 0C34.8462 0 44.8966 10.0504 44.8966 22.4483C44.8966 34.8462 34.8462 44.8966 22.4483 44.8966C10.0504 44.8966 0 34.8462 0 22.4483Z" transform="translate(764.57196 29.956573)" id="Circle" fill="#FFB8B8" fill-rule="evenodd" stroke="none" />
      <path d="M20.2802 28.0318C13.3304 30.9389 5.30902 28.094 1.7439 21.4577C-1.82129 14.8213 0.235046 6.56262 6.49579 2.37277C12.4706 -1.62564 21.3936 -0.302219 27.1858 4.33505C35.1993 0.69006 44.6505 2.65133 50.5519 9.18399C56.1433 15.6522 56.7545 25.9196 52.6797 33.46C49.0612 41.442 49.6412 50.6997 54.2276 58.1677C52.4743 58.0962 48.6154 57.7714 43.7867 57.3548C42.3895 57.2343 41.7851 53.13 40.253 52.998C38.9018 52.8815 36.6347 56.7382 35.2189 56.6186C24.7324 55.7325 12.9921 54.8324 7.67151 55.0084C11.6808 45.6231 15.6902 36.2378 20.2802 28.0318L20.2802 28.0318Z" transform="translate(759.15814 23.142029)" id="Shape" fill="#2F2E41" fill-rule="evenodd" stroke="none" />
      <path d="M91.415 0C91.415 0 98.7108 7.52155 94.256 46.3623L91.1782 128.836L85.733 201.863L68.2135 200.698L52.8248 32.6167L31.2805 94.1225L19.6798 195.805L2.87061 194.64L0 93.5228L7.36884 15.3765L91.415 0Z" transform="translate(712.82056 210.5499)" id="Shape" fill="#2F2E41" fill-rule="evenodd" stroke="none" />
      <path d="M13.2534 149.661C4.29004 149.661 0.679932 148.584 0.416016 148.501L0 148.37L0.072998 147.94C0.132813 147.587 6.15497 112.476 14.418 94.042L20.2283 19.2866C20.5712 14.7132 24.0228 10.9805 28.5554 10.2813L28.6331 10.7754L28.5554 10.2813L43.3352 7.96094L52.3762 0L74.0347 1.19775L75.9446 10.3594C78.5349 11.0835 95.6289 16.3223 97.3208 28.8672L97.3418 29.0244L97.2688 29.1646L65.9524 89.4088C68.5989 92.0206 89.5127 113.504 90.9321 140.97L90.9663 141.63L90.3215 141.483C90.2615 141.471 83.5686 140.199 48.3748 146.148C32.0979 148.899 20.7854 149.661 13.2534 149.661L13.2534 149.661Z" transform="translate(718.7744 80.97015)" id="Shape" fill="#3F3D56" fill-rule="evenodd" stroke="none" />
      <path d="M12.7646 125.117L0 115.287L28.49 58.2861L54.9883 2.41989C55.7464 0.821106 57.4188 -0.137604 59.1815 0.0160828C60.9443 0.1698 62.4255 1.40347 62.8955 3.10934L69.4543 26.9034L48.9438 80.2656L12.7646 125.117Z" transform="translate(684.54614 94.26465)" id="Shape" fill="#3F3D56" fill-rule="evenodd" stroke="none" />
      <path d="M382 2L1 2C0.642761 2 0.312622 1.80939 0.133972 1.5C-0.0446777 1.19061 -0.0446777 0.809387 0.133972 0.5C0.312622 0.190613 0.642761 0 1 0L382 0C382.357 0 382.687 0.190613 382.866 0.5C383.045 0.809387 383.045 1.19061 382.866 1.5C382.687 1.80939 382.357 2 382 2L382 2Z" transform="translate(568 426)" id="Shape" fill="#CBCBCB" fill-rule="evenodd" stroke="none" />
      <path d="M54 54L0 54L0 0L27 0L27 2L2 2L2 52L52 52L52 27L54 27L54 54L54 54Z" transform="translate(456.842 72)" id="Polygon" fill="#3F3D56" fill-rule="evenodd" stroke="none" />
      <path d="M13.118 38.046L0 22.983L2.26199 21.013L13.144 33.508L43.011 0L45.25 1.996L13.118 38.046L13.118 38.046Z" transform="translate(469.711 72.002)" id="Polygon" fill="#FFFFFF" fill-rule="evenodd" stroke="none" />
      <path d="M0 7.89078L1.26251 1.57816C1.26251 1.57816 19.8325 -4.73447 21.9102 7.89078L0 7.89078Z" transform="translate(175.70248 59.34897)" id="Shape" fill="#E6E6E6" fill-rule="evenodd" stroke="none" />
      <path d="M0.0019989 46.958L12.176 46.958L17.968 0L0 0L0.0019989 46.958L0.0019989 46.958Z" transform="translate(211.34 367.864)" id="Polygon" fill="#9F616A" fill-rule="evenodd" stroke="none" />
      <path d="M0 0.000976563L23.9756 0L23.9767 0C32.4148 0.000488281 39.2552 6.84082 39.2558 15.279L39.2558 15.7755L0.000793457 15.7769L0 0.000976563Z" transform="translate(208.23639 410.84644)" id="Shape" fill="#2F2E41" fill-rule="evenodd" stroke="none" />
      <path d="M0.00201416 46.958L12.176 46.958L17.968 0L0 0L0.00201416 46.958L0.00201416 46.958Z" transform="translate(152.65198 367.864)" id="Polygon" fill="#9F616A" fill-rule="evenodd" stroke="none" />
      <path d="M0 0.000976563L23.9756 0L23.9767 0C32.4148 0.000488281 39.2552 6.84076 39.2558 15.2789L39.2558 15.7755L0.000823975 15.7769L0 0.000976563Z" transform="translate(149.54837 410.84644)" id="Shape" fill="#2F2E41" fill-rule="evenodd" stroke="none" />
      <path d="M22.725 1.263L8.83701 0L0 41.663L1.26199 79.539L15.15 130.04L34.088 118.677L23.988 66.914L22.725 1.263L22.725 1.263Z" transform="translate(135.302 92.49)" id="Polygon" fill="#3F3D56" fill-rule="evenodd" stroke="none" />
      <path d="M0.679001 5.04999L3.78799 31.563L6.707 93.427L0 185.615L23.988 184.328L35.745 88.376L42.926 44.188L53.026 94.689L59.339 189.378L83.958 187.405L83.958 94.356L84.589 26.513L75.752 0L0.679001 5.04999L0.679001 5.04999Z" transform="translate(148.55798 213.061)" id="Polygon" fill="#2F2E41" fill-rule="evenodd" stroke="none" />
      <path d="M58.076 6.92741C58.076 6.92741 49.2384 -5.6978 32.8256 3.13985L25.2505 13.24L1.26254 30.9153L6.31262 90.2538L0 164.743L89.639 163.48L74.4888 88.9913L74.4888 9.45244L58.076 6.92741Z" transform="translate(142.87689 61.574875)" id="Shape" fill="#3F3D56" fill-rule="evenodd" stroke="none" />
      <path d="M7.239 0L0 86.555L9.13301 39.645L7.239 0L7.239 0Z" transform="translate(145.107 113.446)" id="Polygon" fill="#000000" fill-opacity="0.25" fill-rule="evenodd" stroke="none" />
      <path d="M32.858 25.8313C30.2488 26.7177 27.3809 26.4029 25.0261 24.9716C22.6713 23.5403 21.0714 21.1394 20.657 18.415L0 13.3099L0.0406799 0L29.1111 7.61917C33.8379 7.21738 38.1181 10.4145 39.0741 15.0609C40.03 19.7074 37.3595 24.3345 32.8581 25.8313L32.858 25.8313Z" transform="translate(270.16986 160.18613)" id="Shape" fill="#9F616A" fill-rule="evenodd" stroke="none" />
      <path d="M0 19.8994L3.47357 0L12.1796 1.51968L8.70602 21.4191L0 19.8994Z" transform="translate(277.9533 160.02692)" id="Rectangle" fill="#E6E6E6" fill-rule="evenodd" stroke="none" />
      <path d="M0 25.3525C0 11.3507 11.3507 0 25.3525 0C39.3543 0 50.7051 11.3507 50.7051 25.3525C50.7051 39.3543 39.3543 50.7051 25.3525 50.7051C11.3507 50.7051 0 39.3543 0 25.3525Z" transform="translate(161.5503 3.2140656)" id="Circle" fill="#9F616A" fill-rule="evenodd" stroke="none" />
      <path d="M31.7249 50.946C18.8749 54.0311 5.77846 46.8747 1.43407 34.3941C-2.91032 21.9136 2.9117 8.17184 14.8998 2.61096C19.356 0.622083 24.2293 -0.252444 29.099 0.0628335C36.6813 0.461485 44.0508 3.2639 51.6407 3.05739L52.7408 4.82571L56.8868 3.82022L57.7752 7.11184L58.8672 7.07405C60.8234 10.7094 57.676 15.914 53.548 15.8699C51.9247 15.6828 50.3242 15.3341 48.7702 14.8291C47.172 14.4867 45.29 14.572 44.1879 15.7791C42.7557 17.3477 43.3792 19.7955 43.6778 21.8985C43.9765 24.0014 43.2306 26.8341 41.1077 26.9028C40.0232 26.9378 38.9918 26.1601 37.9262 26.3646C36.685 26.6028 36.0574 28.1015 36.2387 29.3523C36.546 30.5795 37.0473 31.7498 37.7236 32.819C40.6959 39.3006 38.3078 46.9805 32.184 50.6336" transform="translate(157.07172 -0.015304565)" id="Shape" fill="#2F2E41" fill-rule="evenodd" stroke="none" />
      <path d="M9.91873 4.88954L15.9447 0.0113678C15.9447 0.0113678 28.1065 -0.834152 27.8868 12.0587L47.3465 72.9302L84.6784 86.1548L79.648 112.145L26.8288 92.0236L0 47.5553L9.91873 4.88954Z" transform="translate(201.42099 71.015945)" id="Shape" fill="#3F3D56" fill-rule="evenodd" stroke="none" />
      <path d="M382 2L0.999998 2C0.642729 2 0.312605 1.80939 0.13397 1.5C-0.0446568 1.19061 -0.0446568 0.809387 0.13397 0.5C0.312605 0.190613 0.642729 0 0.999998 0L382 0C382.357 0 382.687 0.190613 382.866 0.5C383.045 0.809387 383.045 1.19061 382.866 1.5C382.687 1.80939 382.357 2 382 2L382 2Z" transform="translate(0 426)" id="Shape" fill="#CBCBCB" fill-rule="evenodd" stroke="none" />
    </g>
  </g>
</svg>