<svg xmlns="http://www.w3.org/2000/svg" xmlns:xlink="http://www.w3.org/1999/xlink" data-name="Layer 1" width="711.1879" height="669.68268"><rect id="backgroundrect" width="100%" height="100%" x="0" y="0" fill="none" stroke="none"/><title>feeling_proud</title><g class="currentLayer" style=""><title>Layer 1</title><polygon points="516.326 380.018 516.326 565.013 547.27 615.443 549.625 619.279 671.722 619.279 674.189 380.018 516.326 380.018" fill="#e6e6e6" id="svg_1" class="" filter=""/><polygon points="516.326 380.018 516.326 565.013 547.27 615.443 549.169 380.018 516.326 380.018" opacity="0.1" id="svg_2" class="" filter=""/><polygon points="221.566 375.084 221.566 560.08 190.622 610.51 188.267 614.345 66.17 614.345 63.703 375.084 221.566 375.084" fill="#e6e6e6" id="svg_3" class=""/><polygon points="221.566 375.084 221.566 560.08 190.622 610.51 188.723 375.084 221.566 375.084" opacity="0.1" id="svg_4"/><polygon points="711.188 371.385 711.188 382.484 47.67 382.484 47.67 366.451 109.335 334.385 656.923 334.385 711.188 371.385" fill="#e6e6e6" id="svg_5" class="" filter=""/><polygon points="711.188 371.385 711.188 382.484 47.67 382.484 47.67 366.451 711.188 371.385" opacity="0.1" id="svg_6" class="" filter=""/><polygon points="142.635 426.883 113.035 426.883 100.702 418.25 156.201 418.25 142.635 426.883" fill="#3f3d56" id="svg_7"/><polygon points="142.635 462.649 113.035 462.649 100.702 454.016 156.201 454.016 142.635 462.649" fill="#3f3d56" id="svg_8"/><polygon points="142.635 513.215 113.035 513.215 100.702 504.581 156.201 504.581 142.635 513.215" fill="#3f3d56" id="svg_9"/><polygon points="142.635 563.78 113.035 563.78 100.702 555.147 156.201 555.147 142.635 563.78" fill="#3f3d56" id="svg_10"/><polygon points="595.257 431.816 624.857 431.816 637.19 423.183 581.691 423.183 595.257 431.816" fill="#3f3d56" id="svg_11" class=""/><polygon points="595.257 467.582 624.857 467.582 637.19 458.949 581.691 458.949 595.257 467.582" fill="#3f3d56" id="svg_12" class=""/><polygon points="595.257 518.148 624.857 518.148 637.19 509.515 581.691 509.515 595.257 518.148" fill="#3f3d56" id="svg_13" class=""/><polygon points="595.257 568.713 624.857 568.713 637.19 560.08 581.691 560.08 595.257 568.713" fill="#3f3d56" id="svg_14"/><path d="M615.4138383642578,120.45626911132811 H366.2284083642578 a9.4227,9.4227 0 0 0 -9.42389,9.42389 V297.7378891113281 a9.4227,9.4227 0 0 0 9.42389,9.42388 h94.5929 l-3.54389,22.62623 s-20.25281,10.75927 -6.01251,11.07574 s81.32764,0 81.32764,0 s12.97448,0 -7.59479,-11.39221 l-3.3336200000000002,-22.30976 h93.7497 a9.42266,9.42266 0 0 0 9.42388,-9.42388 V129.8801591113281 A9.42266,9.42266 0 0 0 615.4138383642578,120.45626911132811 z" fill="#3f3d56" id="svg_15" class="" filter=""/><rect x="365.8233642578125" y="130.42445373535156" width="249.99557495117188" height="139.87094116210938" fill="#4fc3f7" id="svg_16" class="" filter="" rx="5" ry="5" fill-opacity="1" opacity="1"/><circle cx="490.8211364746094" cy="125.99414825439453" r="1.5822499990463257" fill="#f2f2f2" id="svg_17" class="" filter=""/><circle cx="490.8211364746094" cy="294.3455810546875" r="6.012549877166748" fill="#f2f2f2" id="svg_18" class="" filter=""/><polygon points="481.452 357.952 481.452 361.117 311.202 361.117 311.202 358.585 311.436 357.952 315.632 346.56 477.971 346.56 481.452 357.952" fill="#3f3d56" id="svg_19" class="" filter=""/><path d="M546.9695283642578,354.8539991113281 c-0.31011000000000005,1.3259 -1.481,2.72467 -4.1265,4.04741 c-9.493500000000001,4.7467500000000005 -28.797,-1.2658 -28.797,-1.2658 s-14.87315,-2.53161 -14.87315,-9.17706 a11.865920000000001,11.865920000000001 0 0 1 1.30377,-0.77528 c3.99133,-2.11163 17.2253,-7.32222 40.69051,0.22062 a9.78618,9.78618 0 0 1 4.46035,2.923 A4.667,4.667 0 0 1 546.9695283642578,354.8539991113281 z" fill="#3f3d56" id="svg_20" class="" filter=""/><path d="M546.9695283642578,354.8539991113281 c-11.620000000000001,4.45247 -21.97744,4.78472 -32.607,-2.59805 a23.34328,23.34328 0 0 0 -13.88583,-4.57268 c3.99133,-2.11163 17.2253,-7.32222 40.69051,0.22062 a9.78618,9.78618 0 0 1 4.46035,2.923 A4.667,4.667 0 0 1 546.9695283642578,354.8539991113281 z" opacity="0.1" id="svg_21" class="" filter=""/><ellipse cx="532.400146484375" cy="350.99017333984375" rx="4.113850116729736" ry="1.2657999992370605" fill="#f2f2f2" id="svg_22" class="" filter=""/><polygon points="481.452 357.952 481.452 361.117 311.202 361.117 311.202 358.585 311.436 357.952 481.452 357.952" opacity="0.1" id="svg_23" class="" filter=""/><path d="M94.66145836425784,0.00014911132812756023 a8.55394,8.55394 0 0 0 -4.96126,1.1083 c-1.476,1.0108 -2.40629,2.78162 -3.35588,4.42947 a52.98576,52.98576 0 0 1 -14.43428,16.30464 c-4.28894,3.142 -9.74169,7.05966 -9.00789,12.85269 a17.37163,17.37163 0 0 0 2.09058,5.4255 c3.9566,7.987 14.75357,14.15926 13.69156,23.27309 c3.931,-6.58092 -1.327,-9.835 2.604,-16.41586 c1.8720500000000002,-3.134 5.1241200000000005,-6.67168 7.95054,-4.70353 c0.94637,0.6590000000000001 1.56777,1.84095 2.55314,2.4191700000000003 c2.35122,1.37972 4.85259,-1.258 6.93387,-3.12633 c7.17685,-6.44263 17.383,-4.7548 26.31387,-2.74743 c4.21624,0.9476700000000001 8.8473,2.191 11.33971,6.2207 c3.277,5.29821 -3.11344,11.02034 -4.72807,17.01049 a3.2640000000000002,3.2640000000000002 0 0 0 3.50293,4.06214 c2.6797500000000003,-0.26434 5.8542000000000005,-0.48100000000000004 6.01278,-1.65694 c3.37154,0.12000000000000001 7.50269,-0.26181000000000004 8.94728,-3.7725 a14.76216,14.76216 0 0 0 0.6925200000000001,-4.29319 c0.5302,-5.8971800000000005 3.0331,-11.27719 4.691190000000001,-16.88993 s2.37906,-12.1905 -0.41909,-17.1668 a19.86362,19.86362 0 0 0 -3.6660000000000004,-4.45557 C135.5339483642578,2.511509111328124 114.65653836425781,-0.02266088867187932 94.66145836425784,0.00014911132812756023 z" fill="#2f2e41" id="svg_24"/><path d="M82.1376983642578,74.90519911132813 s3.4534000000000002,28.7784 -9.20909,31.08068 s11.51136,41.4409 11.51136,41.4409 l57.55681,6.90682 l-13.81364,-46.04545 s-9.20909,-3.45341 -3.4534000000000002,-26.47613 S82.1376983642578,74.90519911132813 82.1376983642578,74.90519911132813 z" fill="#c68c73" id="svg_25" class="" fill-opacity="1"/><polygon points="47.028 569.318 51.633 632.631 75.806 632.631 68.9 569.318 47.028 569.318" fill="#c68c73" id="svg_26" class="" fill-opacity="1"/><polygon points="224.303 449.6 227.756 502.552 254.233 491.041 243.872 447.298 224.303 449.6" fill="#c68c73" id="svg_27" class="" fill-opacity="1"/><path d="M29.76099836425783,327.57959911132815 s1.15113,66.7659 8.058,88.63749 s5.75568,23.02272 4.60455,26.47613 s-2.30228,1.15114 -2.30228,6.90682 s-2.30227,96.69544 0,104.7534 s-6.90681,21.87159 0,23.02272 s39.13863,0 40.28977,-6.90682 s-9.20909,-9.20909 -4.60454,-13.81363 s11.51136,-98.99772 11.51136,-98.99772 l16.11591,-65.61476 l29.92954,-34.53409 H196.6757483642578 l19.56932,75.975 s-8.058,21.87159 -2.30228,21.87159 s40.28977,6.90682 40.28977,-18.41818 S242.72119836425782,336.7886891113281 240.4189483642578,334.48641911132813 s1.15113,-10.36023 -2.30228,-13.81364 s-43.74317,-27.62727 -58.70794,-32.23181 S143.45094836425784,278.35609911132815 143.45094836425784,278.35609911132815 z" fill="#2f2e41" id="svg_28" class=""/><path d="M254.23255836425784,481.8318491113281 s-17.267,-5.75568 -25.325,11.51137 s-4.60454,21.87159 -4.60454,21.87159 s26.47613,9.20909 31.08068,4.60454 c2.00333,-2.00334 8.36471,-2.69926 14.91273,-2.84621 c9.97289,-0.22381000000000004 12.62625,-14.33323 3.20748,-17.618850000000002 q-0.42145000000000005,-0.14700000000000002 -0.8531700000000001,-0.25539 C263.4416483642578,496.7966291113281 254.23255836425784,481.8318491113281 254.23255836425784,481.8318491113281 z" fill="#2f2e41" id="svg_29" class="" filter=""/><circle cx="108.03826141357422" cy="64.72200288190288" r="34.534088134765625" fill="#c68c73" id="svg_30" class="" fill-opacity="1"/><path d="M63.143948364257824,120.37507911132812 s56.40567,11.51136 70.21931,-6.90682 s19.56931,51.80113 19.56931,51.80113 l6.90682,73.67272 l-10.36023,40.28977 s-54.1034,43.74318 -71.37044,47.19658 s-43.74318,5.75569 -43.74318,5.75569 s8.058,-127.77613 8.058,-130.0784 S63.143948364257824,120.37507911132812 63.143948364257824,120.37507911132812 z" fill="#ffffff" id="svg_31" class="" fill-opacity="1"/><path d="M80.29827836425784,98.78589911132812 s-12.54979,-7.18923 -16.0032,-0.28241000000000005 S28.609858364257832,122.67733911132814 25.156448364257812,122.67733911132814 s6.90682,95.54431 2.30227,107.05567 S0.9825883642578219,325.2773391113281 13.645088364257788,332.1841491113281 s3.45341,-6.90682 16.11591,10.36022 s74.82385,17.267 78.27726,10.36023 s-27.62727,-58.708 -21.87159,-107.05567 s14.96477,-115.11362 6.90682,-124.32271 S80.29827836425784,98.78589911132812 80.29827836425784,98.78589911132812 z" fill="#2f2e41" id="svg_32" class=""/><path d="M121.8519483642578,106.56143911132813 l1.60341,-5.518 s47.89544,15.87824 50.19772,26.23847 s1.15113,82.88181 -6.90682,88.63749 s-19.56932,14.96477 -11.51136,28.7784 s17.267,28.77841 24.17386,29.92954 s19.56931,9.20909 16.1159,17.267 s-44.89431,-6.90682 -44.89431,-6.90682 s-27.62727,-20.72045 -26.47613,-52.95227 S121.8519483642578,106.56143911132813 121.8519483642578,106.56143911132813 z" fill="#2f2e41" id="svg_33" class=""/><path d="M162.1416583642578,242.3955191113281 l-27.62727,51.80113 s-40.28976,41.4409 -17.267,46.04545 s35.68522,-37.9875 35.68522,-37.9875 l29.92955,-42.592 z" fill="#c68c73" id="svg_34" class="" fill-opacity="1"/><path d="M96.34375836425784,9.035909111328124 a7.8380600000000005,7.8380600000000005 0 0 0 -4.03868,0.78334 a9.41322,9.41322 0 0 0 -2.73182,3.13072 a39.77267,39.77267 0 0 1 -11.7501,11.524000000000001 c-3.49138,2.22077 -7.93014,4.98972 -7.3328,9.0842 a11.35949,11.35949 0 0 0 1.70182,3.8347 a30.16344,30.16344 0 0 1 3.66519,18.80068 l9.60011,-13.954 c1.52393,-2.21507 4.17125,-4.7155000000000005 6.47207,-3.32442 c0.77039,0.46577 1.27623,1.30117 2.07836,1.70985 c1.9140000000000001,0.9751799999999999 3.95021,-0.8891200000000001 5.64447,-2.20967 c5.84225,-4.55361 14.15049,-3.36066 21.42059,-1.9418700000000002 c3.43219,0.6698100000000001 7.20207,1.54859 9.231,4.3967600000000004 c3.37169,4.73311 -0.14900000000000002,11.5721 1.81882,17.04 a5.02339,5.02339 0 0 0 2.07852,-3.31717 c2.74457,0.08484000000000001 6.1075,-0.18500000000000003 7.28345,-2.66638 a9.187570000000001,9.187570000000001 0 0 0 0.5637400000000001,-3.03439 c0.43161000000000005,-4.16809 2.46907,-7.97065 3.81883,-11.93769 s1.93666,-8.61616 -0.3411600000000001,-12.13338 a14.68107,14.68107 0 0 0 -2.98426,-3.14917 C129.61568836425784,10.810919111328118 112.6205883642578,9.019789111328123 96.34375836425784,9.035909111328124 z" fill="#2f2e41" id="svg_35"/><path d="M162.1416583642578,122.67733911132814 l10.72528,2.84686 s24.95995,63.919 19.20427,107.66222 s-9.20909,34.53409 -9.20909,34.53409 s-9.20909,-20.72046 -29.92955,-16.11591 z" fill="#2f2e41" id="svg_36"/><path d="M48.62288836425779,624.2633391113282 c-2.77592,3.77228 -2.21935,9.16459 -4.67828,13.15075 c-2.13144,3.45526 -6.14837,5.26695 -8.81439,8.32869 a22.32616,22.32616 0 0 0 -2.26617,3.2598700000000003 c-2.47311,4.14255 -4.4833,9.45174 -2.04761,13.61641 c1.95936,3.35022 6.07786,4.65961 9.855,5.552 c4.77407,1.1280000000000001 9.73436,2.03071 14.56354,1.16876 s9.54882,-3.819 11.27067,-8.41239 a32.50011,32.50011 0 0 1 1.2051,-3.4007 c2.61747,-5.15294 10.827490000000001,-5.20864 13.50628,-10.33 c1.87466,-3.584 0.15138000000000001,-7.91623 -1.57118,-11.57578 l-5.26109,-11.1771 c-1.7459200000000001,-3.70919 -8.82362,-1.5760800000000001 -12.51339,-2.46492 C57.05912836425779,620.8197791113281 52.084788364257804,619.5425991113282 48.62288836425779,624.2633391113282 z" fill="#2f2e41" id="svg_37" class=""/><path d="M10.191678364257825,265.41823911132815 l48.34772,74.82386 s29.92954,37.98749 39.13863,20.72045 s-32.23181,-46.04545 -32.23181,-46.04545 L34.365538364257816,257.36033911132813 z" fill="#c68c73" id="svg_38" class="" fill-opacity="1"/><path d="M34.365538364257816,124.97961911132813 L25.156448364257812,122.67733911132814 s-18.41818,5.75568 -23.02272,29.92954 s-1.15114,120.86931 4.60454,122.02044 s28.42725,-16.83663 32.05624,-13.02286 s-7.88238,-15.75554 -4.429,-26.11577 S34.365538364257816,124.97961911132813 34.365538364257816,124.97961911132813 z" fill="#2f2e41" id="svg_39"/><g id="f3c2397c-d780-4cc6-97d8-1503d8277a2c" data-name="Group 13" class="" filter="" fill="#ffffff" fill-opacity="1"><rect id="ad41612f-86f7-46b2-a964-3a5da7bcf3cf" data-name="Rectangle 55" x="437.40692138671875" y="176.3627471923828" width="29.752349853515625" height="7.162600040435791" fill="#ffffff" filter="" fill-opacity="1"/><rect id="b9a0b375-cc2a-4c59-8850-661af54e4f62" data-name="Rectangle 56" x="559.72216796875" y="176.3627471923828" width="10.468420028686523" height="7.162600040435791" fill="#ffffff" filter="" fill-opacity="1"/><rect id="e174c2ab-9bc5-41ec-b37c-b06fbf8a9878" data-name="Rectangle 57" x="580.6589965820312" y="176.3627471923828" width="10.468420028686523" height="7.162600040435791" fill="#ffffff" filter="" fill-opacity="1"/><rect id="ba2479ac-4c7d-43b4-a028-73b1e20e4002" data-name="Rectangle 58" x="477.627685546875" y="176.3627471923828" width="71.07505798339844" height="7.162600040435791" fill="#ffffff" filter="" fill-opacity="1"/><rect id="ac60ef86-00f2-480b-8171-28b6fdfc1958" data-name="Rectangle 59" x="399.94097900390625" y="222.64419555664062" width="29.752349853515625" height="7.162600040435791" fill="#ffffff" filter="" fill-opacity="1"/><rect id="b3d8298d-cd65-487a-8b19-4cee946356e7" data-name="Rectangle 60" x="522.2562255859375" y="222.64419555664062" width="10.468420028686523" height="7.162600040435791" fill="#ffffff" filter="" fill-opacity="1"/><rect id="ed27f15f-f0c4-4569-8330-a6688f8e356c" data-name="Rectangle 61" x="543.1930541992188" y="222.64419555664062" width="10.468420028686523" height="7.162600040435791" fill="#ffffff" filter="" fill-opacity="1"/><rect id="f685c005-adaf-4d60-acda-005b037d82a6" data-name="Rectangle 62" x="440.1617736816406" y="222.64419555664062" width="71.07505798339844" height="7.162600040435791" fill="#ffffff" filter="" fill-opacity="1"/><rect id="eca7c7fc-83f8-48ca-a588-6606db47af3f" data-name="Rectangle 63" x="522.8071899414062" y="192.34088134765625" width="29.752349853515625" height="7.162600040435791" fill="#ffffff" filter="" fill-opacity="1"/><rect id="a71b5b2f-f8b9-481d-a301-5e3357e5fe42" data-name="Rectangle 64" x="563.0279541015625" y="192.34088134765625" width="29.752349853515625" height="7.162600040435791" fill="#ffffff" filter="" fill-opacity="1"/><rect id="abb3a25a-f854-41fc-8391-e6ad9fbe2417" data-name="Rectangle 66" x="399.94097900390625" y="192.34088134765625" width="10.468420028686523" height="7.162600040435791" fill="#ffffff" filter="" fill-opacity="1"/><rect id="add2b425-b775-4eb5-9c25-8c4c14f957c9" data-name="Rectangle 67" x="420.8778381347656" y="192.34088134765625" width="10.468420028686523" height="7.162600040435791" fill="#ffffff" filter="" fill-opacity="1"/><rect id="b7159612-3b84-4b0b-a885-612eaab04c06" data-name="Rectangle 68" x="441.8146667480469" y="192.34088134765625" width="71.07505798339844" height="7.162600040435791" fill="#ffffff" filter="" fill-opacity="1"/><rect id="edfc7301-4de5-47dc-80e2-1ae2da982d6d" data-name="Rectangle 69" x="461.0986022949219" y="207.7680206298828" width="29.752349853515625" height="7.162600040435791" fill="#ffffff" filter="" fill-opacity="1"/><rect id="e1009f91-6275-4375-80fa-0d778e331fdc" data-name="Rectangle 70" x="420.8778381347656" y="207.7680206298828" width="29.752349853515625" height="7.162600040435791" fill="#ffffff" filter="" fill-opacity="1"/><rect id="a060fb9f-1f1a-4862-9a69-16dd49199e18" data-name="Rectangle 71" x="399.9410095214844" y="207.7680206298828" width="10.468420028686523" height="7.162600040435791" fill="#ffffff" filter="" fill-opacity="1"/><rect id="b6754d5f-104f-449c-b9a9-cf9ac82bf5fe" data-name="Rectangle 73" x="582.3118896484375" y="207.7680206298828" width="10.468420028686523" height="7.162600040435791" fill="#ffffff" filter="" fill-opacity="1"/><rect id="e6ed1ccd-2cfd-450f-a339-07df3a1ee6bb" data-name="Rectangle 74" x="500.7684020996094" y="207.7680206298828" width="71.07505798339844" height="7.162600040435791" fill="#ffffff" filter="" fill-opacity="1"/></g></g><defs><filter id="f108" xmlns:inkscape="http://www.inkscape.org/namespaces/inkscape" inkscape:label="Specular light" inkscape:menu="ABCs" inkscape:menu-tooltip="Basic specular bevel to use for building textures" color-interpolation-filters="sRGB">
            <feGaussianBlur result="result0" in="SourceAlpha" stdDeviation="6"/>
            <feSpecularLighting specularExponent="25" specularConstant="1" surfaceScale="10" lighting-color="#fff" result="result1" in="result0">
                <feDistantLight azimuth="235" elevation="45"/>
            </feSpecularLighting>
            <feComposite k3="1" k2="1" operator="arithmetic" result="result4" in="SourceGraphic" in2="result91"/>
            <feComposite operator="in" result="result2" in="result4" in2="SourceAlpha"/>
        </filter></defs></svg>
