<?xml version="1.0" encoding="utf-8"?>
<svg width="718px" height="557px" viewBox="0 0 718 557" version="1.1" xmlns:xlink="http://www.w3.org/1999/xlink" xmlns="http://www.w3.org/2000/svg">
  <defs>
    <path d="M0 0L717.67 0L717.67 556.322L0 556.322L0 0Z" id="path_1" />
    <clipPath id="mask_1">
      <use xlink:href="#path_1" />
    </clipPath>
  </defs>
  <g id="present" transform="matrix(-1 0 0 1 717.67004 0)">
    <path d="M0 0L717.67 0L717.67 556.322L0 556.322L0 0Z" id="Background" fill="none" fill-rule="evenodd" stroke="none" />
    <g clip-path="url(#mask_1)">
      <path d="M4.81298 22.08L12.523 9.68994L14.063 16.77C14.333 18.01 14.603 19.27 14.853 20.52C17.0429 18.6499 19.373 16.9199 21.6528 15.26C28.6528 10.1799 35.6495 5.0932 42.643 0L40.4531 12.7C39.103 20.5201 37.6928 28.5 34.353 35.65C33.9829 36.4601 33.583 37.2601 33.1528 38.0402L0.612785 38.0402C0.351036 37.3156 0.169945 36.5643 0.0727768 35.8C0.0646591 35.7505 0.0613937 35.7003 0.0630112 35.65C-0.447304 30.7999 2.23287 26.2299 4.81298 22.08L4.81298 22.08Z" transform="translate(92.58603 516.95996)" id="Shape" fill="#F0F0F0" fill-rule="evenodd" stroke="none" />
      <path d="M472.841 0L14.8439 0C6.65131 0.0130463 0.013092 6.6512 0 14.8438L0 323.902C0.00848389 332.098 6.65024 338.739 14.845 338.746L472.841 338.746C481.036 338.738 487.677 332.097 487.685 323.902L487.685 14.8438C487.672 6.65088 481.034 0.0128632 472.841 0L472.841 0Z" transform="translate(114.5531 0)" id="Shape" fill="#E6E6E6" fill-rule="evenodd" stroke="none" />
      <path d="M458.787 318.292L158.691 318.292C71.1543 318.036 0.255554 247.137 0 159.601L0 8.45459C0 3.7933 3.77432 0.0104828 8.43704 0L458.787 0C463.449 0.00965881 467.224 3.79185 467.225 8.45459L467.225 309.854C467.22 314.511 463.446 318.286 458.787 318.292L458.787 318.292Z" transform="translate(125.785034 10.221619)" id="Shape" fill="#FFFFFF" fill-rule="evenodd" stroke="none" />
      <path d="M423.028 3.3515L1.63922 3.3515C0.728119 3.33142 0 2.58707 0 1.67575C0 0.764435 0.728119 0.0200806 1.63922 0L423.028 1.52588e-05C423.939 0.0200806 424.667 0.764435 424.667 1.67575C424.667 2.58707 423.939 3.33142 423.028 3.3515L423.028 3.3515Z" transform="translate(137.90524 48.89589)" id="Shape" fill="#CACACA" fill-rule="evenodd" stroke="none" />
      <path d="M0 10.0395C0 4.49485 4.39686 0 9.82066 0C15.2445 0 19.6413 4.49485 19.6413 10.0395C19.6413 15.5842 15.2445 20.079 9.82066 20.079C4.39686 20.079 0 15.5842 0 10.0395Z" transform="translate(158.40826 20.260864)" id="Ellipse" fill="#3F3D56" fill-rule="evenodd" stroke="none" />
      <path d="M0 10.0395C0 4.49485 4.39686 0 9.82066 0C15.2445 0 19.6413 4.49485 19.6413 10.0395C19.6413 15.5842 15.2445 20.079 9.82066 20.079C4.39686 20.079 0 15.5842 0 10.0395Z" transform="translate(192.33418 20.260864)" id="Ellipse" fill="#3F3D56" fill-rule="evenodd" stroke="none" />
      <path d="M0 10.0395C0 4.49485 4.39686 0 9.82066 0C15.2445 0 19.6413 4.49485 19.6413 10.0395C19.6413 15.5842 15.2445 20.079 9.82066 20.079C4.39686 20.079 0 15.5842 0 10.0395Z" transform="translate(226.26007 20.260864)" id="Ellipse" fill="#3F3D56" fill-rule="evenodd" stroke="none" />
      <path d="M183.001 24L12.3522 24C5.94756 24.0823 0.567825 19.2018 0.0279999 12.8193C-0.420761 6.2034 4.57869 0.476318 11.1946 0.0275269C11.4629 0.00933838 11.7316 0.000152588 12.0007 0L183.001 0C187.288 0 191.249 2.2872 193.393 6C195.537 9.7128 195.537 14.2872 193.393 18C191.249 21.7128 187.288 24 183.001 24L183.001 24Z" transform="translate(243.51546 178.88972)" id="Shape" fill="#32C9DB" fill-rule="evenodd" stroke="none" />
      <path d="M0 10.8415C0 4.8539 4.8539 0 10.8415 0C16.8291 0 21.683 4.8539 21.683 10.8415C21.683 16.8291 16.8291 21.683 10.8415 21.683C4.8539 21.683 0 16.8291 0 10.8415Z" transform="translate(415.99066 113.999954)" id="Circle" fill="#E6E6E6" fill-rule="evenodd" stroke="none" />
      <path d="M4.16733 11.2887C3.78775 11.2887 3.43033 11.11 3.20267 10.8063L0.244965 6.86256C-0.0162048 6.51804 -0.0730286 6.06004 0.0961609 5.66218C0.26535 5.26429 0.634552 4.9874 1.06387 4.93647C1.49319 4.88554 1.91696 5.06831 2.17453 5.41557L4.10953 7.99543L9.07944 0.540657C9.31717 0.181313 9.72849 -0.0239487 10.1586 0.00223541C10.5887 0.0284195 10.9721 0.282051 11.1645 0.66758C11.3568 1.05311 11.3289 1.512 11.0912 1.87135L11.0863 1.87858L5.17087 10.7517C4.9537 11.0774 4.59213 11.2774 4.2009 11.2884L4.16733 11.2887Z" transform="matrix(-1 0 0 1 432.47714 119.19525)" id="Shape" fill="#FFFFFF" fill-rule="evenodd" stroke="none" />
      <path d="M0 10.8415C0 4.8539 4.8539 0 10.8415 0C16.8291 0 21.683 4.8539 21.683 10.8415C21.683 16.8291 16.8291 21.683 10.8415 21.683C4.8539 21.683 0 16.8291 0 10.8415Z" transform="translate(415.99066 245.99994)" id="Circle" fill="#E6E6E6" fill-rule="evenodd" stroke="none" />
      <path d="M4.16733 11.2888C3.78775 11.2888 3.43033 11.11 3.20267 10.8063L0.244965 6.86255C-0.0162048 6.51807 -0.0730286 6.06006 0.0961609 5.66217C0.26535 5.26428 0.634552 4.98743 1.06387 4.93646C1.49319 4.88556 1.91696 5.0683 2.17453 5.41559L4.10953 7.99542L9.07944 0.540665C9.31717 0.18132 9.72849 -0.023941 10.1586 0.00224304C10.5887 0.0284271 10.9721 0.282059 11.1645 0.667587C11.3568 1.05312 11.3289 1.51201 11.0912 1.87135L11.0863 1.87859L5.17087 10.7518C4.9537 11.0774 4.59213 11.2775 4.2009 11.2885L4.16733 11.2888Z" transform="matrix(-1 0 0 1 432.47714 251.19525)" id="Shape" fill="#FFFFFF" fill-rule="evenodd" stroke="none" />
      <path d="M96.0007 24L12.3522 24C5.94756 24.0823 0.567825 19.2018 0.0279999 12.8193C-0.420761 6.2034 4.57869 0.476318 11.1946 0.0275269C11.4629 0.00933838 11.7316 0.000152588 12.0007 0L96.0007 0C100.288 0 104.249 2.2872 106.393 6C108.537 9.7128 108.537 14.2872 106.393 18C104.249 21.7128 100.288 24 96.0007 24L96.0007 24Z" transform="translate(243.51546 112.889725)" id="Shape" fill="#32C9DB" fill-rule="evenodd" stroke="none" />
      <path d="M183.5 25L12.5 25C8.03418 25 3.90759 22.6175 1.67468 18.75C-0.558228 14.8825 -0.558228 10.1175 1.67468 6.25C3.90759 2.38248 8.03418 0 12.5 0L183.5 0C187.966 0 192.092 2.38248 194.325 6.25C196.558 10.1175 196.558 14.8825 194.325 18.75C192.092 22.6175 187.966 25 183.5 25L183.5 25ZM12.5 2C6.70102 2 2 6.70099 2 12.5C2 18.299 6.70096 23 12.4999 23L183.5 23C189.299 23 194 18.299 194 12.5C194 6.70105 189.299 2.00003 183.5 2L12.5 2Z" transform="translate(243.01611 112.389725)" id="Shape" fill="#2A99A8" fill-rule="evenodd" stroke="none" />
      <path d="M183.5 25L12.5 25C8.03418 25 3.90759 22.6175 1.67468 18.75C-0.558228 14.8825 -0.558228 10.1175 1.67468 6.25C3.90759 2.38248 8.03418 0 12.5 0L183.5 0C187.966 0 192.092 2.38248 194.325 6.25C196.558 10.1175 196.558 14.8825 194.325 18.75C192.092 22.6175 187.966 25 183.5 25L183.5 25ZM12.5 2C6.70102 2 2 6.70099 2 12.5C2 18.299 6.70096 23 12.4999 23L183.5 23C189.299 23 194 18.299 194 12.5C194 6.70105 189.299 2.00003 183.5 2L12.5 2Z" transform="translate(243.01611 178.38972)" id="Shape" fill="#2A99A8" fill-rule="evenodd" stroke="none" />
      <path d="M60.0007 24L12.3522 24C5.94756 24.0823 0.567825 19.2018 0.0279999 12.8193C-0.420761 6.2034 4.57869 0.476318 11.1946 0.0275269C11.4629 0.00933838 11.7316 0.000152588 12.0007 0L60.0007 0C64.2878 0 68.2494 2.2872 70.393 6C72.5365 9.7128 72.5365 14.2872 70.393 18C68.2494 21.7128 64.2878 24 60.0007 24L60.0007 24Z" transform="translate(243.51546 244.88972)" id="Shape" fill="#32C9DB" fill-rule="evenodd" stroke="none" />
      <path d="M183.5 25L12.5 25C8.03418 25 3.90759 22.6175 1.67468 18.75C-0.558228 14.8825 -0.558228 10.1175 1.67468 6.25C3.90759 2.38248 8.03418 0 12.5 0L183.5 0C187.966 0 192.092 2.38248 194.325 6.25C196.558 10.1175 196.558 14.8825 194.325 18.75C192.092 22.6175 187.966 25 183.5 25L183.5 25ZM12.5 2C6.70102 2 2 6.70099 2 12.5C2 18.2989 6.70096 23 12.4999 23L183.5 23C189.299 23 194 18.299 194 12.5C194 6.70105 189.299 2.00003 183.5 2L12.5 2Z" transform="translate(243.01611 244.38972)" id="Shape" fill="#2A99A8" fill-rule="evenodd" stroke="none" />
      <path d="M44 8L4 8C2.57092 8 1.25043 7.23761 0.535889 6C-0.178619 4.76239 -0.178619 3.23761 0.535889 2C1.25043 0.76239 2.57092 0 4 0L44 0C45.4291 0 46.7496 0.76239 47.4641 2C48.1787 3.23761 48.1787 4.76239 47.4641 6C46.7496 7.23761 45.4291 8 44 8L44 8Z" transform="translate(243.5169 91.999985)" id="Shape" fill="#CCCCCC" fill-rule="evenodd" stroke="none" />
      <path d="M44 8L4 8C2.57092 8 1.25043 7.23761 0.535889 6C-0.178619 4.76239 -0.178619 3.23761 0.535889 2C1.25043 0.76239 2.57092 0 4 0L44 0C45.4291 0 46.7496 0.76239 47.4641 2C48.1787 3.23761 48.1787 4.76239 47.4641 6C46.7496 7.23761 45.4291 8 44 8L44 8Z" transform="translate(243.5169 157.99998)" id="Shape" fill="#CCCCCC" fill-rule="evenodd" stroke="none" />
      <path d="M44 8L4 8C2.57092 8 1.25043 7.23761 0.535889 6C-0.178619 4.76239 -0.178619 3.23761 0.535889 2C1.25043 0.76239 2.57092 0 4 0L44 0C45.4291 0 46.7496 0.76239 47.4641 2C48.1787 3.23761 48.1787 4.76239 47.4641 6C46.7496 7.23761 45.4291 8 44 8L44 8Z" transform="translate(243.5169 223.99998)" id="Shape" fill="#CCCCCC" fill-rule="evenodd" stroke="none" />
      <path d="M0 4.44332C0 1.98934 1.94598 0 4.34647 0C6.74696 0 8.69294 1.98934 8.69294 4.44332C8.69294 6.8973 6.74696 8.88664 4.34647 8.88664C1.94598 8.88664 0 6.8973 0 4.44332Z" transform="translate(223.18146 91.97394)" id="Ellipse" fill="#3F3D56" fill-rule="evenodd" stroke="none" />
      <path d="M0 4.44331C0 1.98934 1.94598 0 4.34647 0C6.74696 0 8.69294 1.98934 8.69294 4.44331C8.69294 6.89728 6.74696 8.88662 4.34647 8.88662C1.94598 8.88662 0 6.89728 0 4.44331Z" transform="translate(223.18146 157.97395)" id="Ellipse" fill="#3F3D56" fill-rule="evenodd" stroke="none" />
      <path d="M0 4.44331C0 1.98934 1.94598 0 4.34647 0C6.74696 0 8.69294 1.98934 8.69294 4.44331C8.69294 6.89728 6.74696 8.88662 4.34647 8.88662C1.94598 8.88662 0 6.89728 0 4.44331Z" transform="translate(223.18146 223.97395)" id="Ellipse" fill="#3F3D56" fill-rule="evenodd" stroke="none" />
      <path d="M14.611 38.191L4.71002 38.19L0 0L14.613 0.00100708L14.611 38.191L14.611 38.191Z" transform="translate(499.335 506)" id="Polygon" fill="#FFB6B6" fill-rule="evenodd" stroke="none" />
      <path d="M30.447 16.4561L0 16.4549L0 16.0699C0.0022583 9.52179 5.30927 4.21777 11.8541 4.21924L11.8516 4.21924L17.4131 0L27.7897 4.21991L30.4475 4.21997L30.447 16.4561Z" transform="translate(483.84747 538.0636)" id="Shape" fill="#2F2E41" fill-rule="evenodd" stroke="none" />
      <path d="M14.611 38.191L4.70996 38.19L0 0L14.613 0.00100708L14.611 38.191L14.611 38.191Z" transform="translate(538.335 506)" id="Polygon" fill="#FFB6B6" fill-rule="evenodd" stroke="none" />
      <path d="M30.447 16.4561L0 16.4549L0 16.0699C0.0022583 9.52179 5.30927 4.21777 11.8541 4.21924L11.8516 4.21924L17.4131 0L27.7897 4.21991L30.4475 4.21997L30.447 16.4561Z" transform="translate(522.8475 538.0636)" id="Shape" fill="#2F2E41" fill-rule="evenodd" stroke="none" />
      <path d="M7 7.82645L0 31.8264L8.24646 133.471C8.24646 133.471 4 139.826 7 139.826C10 139.826 13.8469 141.236 11.4234 145.031C8.99994 148.826 17.2834 162.452 17.2834 162.452L29 234.826L43.9291 234.606C43.9291 234.606 51.5192 230.378 47.2596 226.102C43.0001 221.826 40.0001 221.826 44.0001 217.826C48.0001 213.826 48.0001 215.031 48.0001 211.929C48.0001 208.826 52.0076 170.913 42.5038 156.37L45.3674 97.0744L52.112 155.236L66 232.826L80.3817 232.708C80.3817 232.708 87.0245 226.305 87.0122 221.566C86.9999 216.826 82.908 216.433 85.954 213.63C88.9999 210.826 89 167.763 80 143.826L80.0688 36.7552C80.0688 36.7552 88.9116 12.7246 79.9557 3.27548C70.9999 -6.17361 7 7.82645 7 7.82645L7 7.82645Z" transform="translate(472.8744 297.17355)" id="Shape" fill="#2F2E41" fill-rule="evenodd" stroke="none" />
      <path d="M28.9954 73.5204L35.0243 11.071C35.5394 5.56448 31.5416 0.663147 26.0439 0.0610657L26.0439 0.0610657C20.4843 -0.547791 15.4837 3.46558 14.8749 9.02521C14.8553 9.20325 14.8406 9.38171 14.8306 9.56058L10.5567 74.6223L6.29321 114.047C2.73315 115.117 0.223511 118.3 0.0140991 122.012C-0.195251 125.723 1.94043 129.169 5.35748 130.633C8.7746 132.097 12.7423 131.265 15.2846 128.553C17.8268 125.841 18.4 121.828 16.7186 118.512L28.9954 73.5204Z" transform="translate(541.01935 189.60594)" id="Shape" fill="#FFB6B6" fill-rule="evenodd" stroke="none" />
      <path d="M1.69604 0L23.4185 2.72333C23.4185 2.72333 39.6944 33.4018 36.3445 36.0053C32.9947 38.6089 17.8566 54.8519 6.69611 47.4058C-4.46436 39.9596 1.69604 0 1.69604 0L1.69604 0Z" transform="translate(545.7106 169.02193)" id="Shape" fill="#3F3D56" fill-rule="evenodd" stroke="none" />
      <path d="M0 23.0557C0 10.3224 10.3224 0 23.0557 0C35.789 0 46.1114 10.3224 46.1114 23.0557C46.1114 35.789 35.789 46.1114 23.0557 46.1114C10.3224 46.1114 0 35.789 0 23.0557Z" transform="translate(486.94244 93.47659)" id="Circle" fill="#FFB6B6" fill-rule="evenodd" stroke="none" />
      <path d="M37.756 51.7783C31.1398 51.5612 30.5388 49.8136 23.9227 49.5966C21.8161 49.5275 19.3302 49.2387 18.3117 47.3934C17.7107 45.9918 17.802 44.3894 18.5585 43.0652C19.3134 41.7686 19.9939 40.4299 20.5966 39.0559C21.3338 36.8683 20.9455 34.458 19.5586 32.6126C18.1717 30.7672 15.9645 29.7238 13.6582 29.8235C11.6449 29.9105 9.75394 30.8573 7.74612 31.0303C4.99252 31.2677 -1.09634 22.176 0.171417 19.7201C1.40549 17.3295 3.88895 15.5259 4.27933 12.8641C4.53464 11.1231 3.81601 9.39333 3.7178 7.63649C3.57224 5.03157 10.1754 10.9051 8.96603 8.59331C5.9996 2.92232 33.9536 -4.10814 38.5558 2.99525C40.2757 5.6501 43.3411 5.46901 46.0733 7.0634C47.864 8.10841 52.3856 11.7135 53.4135 13.9605C54.3581 16.2533 54.8044 18.7207 54.7229 21.1992C54.7643 32.7256 53.0083 43.3282 43.7109 50.1415" transform="translate(481.15085 85.91992)" id="Shape" fill="#2F2E41" fill-rule="evenodd" stroke="none" />
      <path d="M30.7545 4L49.7545 0L64.3484 7.0195C64.3484 7.0195 98.8673 20.9048 98.7498 34.596C98.6324 48.2872 92.5654 78.2872 85.5989 81.2872C78.6324 84.2872 91.6324 94.2872 87.6324 100.287C83.6324 106.287 77.5734 147.278 77.5734 147.278C77.5734 147.278 91.7386 175.496 79.7544 181C67.7702 186.504 17.1253 191.649 13.8788 184.468C10.6324 177.287 10.6023 181.206 3.11734 179.247C-4.36758 177.287 3.12527 149.815 9.87881 147.051C16.6324 144.287 20.6324 84.2872 20.6324 84.2872L9.87881 37.6337L26.286 14.539L30.7545 4Z" transform="translate(473.11984 141.99998)" id="Shape" fill="#3F3D56" fill-rule="evenodd" stroke="none" />
      <path d="M37.4807 73.2171L54.6465 12.8713C56.1439 7.54736 53.0931 2.00674 47.7935 0.425446L47.7935 0.425446C42.434 -1.17371 36.7931 1.87454 35.1939 7.23392C35.1427 7.40555 35.0961 7.57843 35.054 7.75256L19.1447 70.9837L7.85788 108.998C4.16336 109.41 1.1218 112.09 0.248077 115.703C-0.625641 119.317 0.855316 123.09 3.95334 125.145C7.0513 127.2 11.1039 127.096 14.0927 124.885C17.0815 122.675 18.3672 118.83 17.3097 115.266L37.4807 73.2171Z" transform="translate(453.08597 201.02217)" id="Shape" fill="#FFB6B6" fill-rule="evenodd" stroke="none" />
      <path d="M7.12375 0L28.0019 6.58701C28.0019 6.58701 41.5815 26.5273 36.4978 29.3721C31.4142 32.2169 29.5069 31.6151 32.1181 36.6333C34.7292 41.6514 38.4928 39.6931 34.7292 41.6514C30.9656 43.6098 13.1522 56.8643 3.51352 47.5318C-6.12515 38.1993 7.12375 0 7.12375 0L7.12375 0Z" transform="translate(478.13394 177.60298)" id="Shape" fill="#3F3D56" fill-rule="evenodd" stroke="none" />
      <path d="M5.38473e-06 1.19C-0.00194774 1.84534 0.52767 2.37811 1.18294 2.38007L716.48 2.38C717.137 2.38 717.67 1.84723 717.67 1.19C717.67 0.532776 717.137 0 716.48 0L1.19001 0C0.534719 -0.00195313 0.00192799 0.527649 5.38473e-06 1.18298L5.38473e-06 1.19Z" transform="translate(0 553.942)" id="Shape" fill="#CCCCCC" fill-rule="evenodd" stroke="none" />
      <path d="M0 20.412C0 9.13875 9.13875 0 20.412 0C31.6852 0 40.8239 9.13875 40.8239 20.412C40.8239 31.6852 31.6852 40.8239 20.412 40.8239C9.13875 40.8239 0 31.6852 0 20.412Z" transform="translate(406.4202 170.42949)" id="Circle" fill="#33C9DB" fill-rule="evenodd" stroke="none" />
      <path d="M7.83893 21.2541C7.12427 21.2541 6.45135 20.9175 6.02271 20.3457L0.454041 12.9207C-0.0326538 12.2717 -0.136108 11.4124 0.182556 10.6665C0.501221 9.92053 1.19366 9.40124 1.99902 9.30426C2.80438 9.20724 3.60028 9.54727 4.08698 10.1963L7.7301 15.0535L17.0873 1.01794C17.5349 0.34137 18.3093 -0.0450745 19.119 0.00421143C19.9288 0.0534973 20.6506 0.531006 21.0128 1.2569C21.375 1.98276 21.3224 2.84674 20.8749 3.52332L20.8658 3.53693L9.72839 20.243C9.31952 20.856 8.63873 21.2327 7.90216 21.2534L7.83893 21.2541Z" transform="matrix(-1 0 0 1 437.46033 180.21092)" id="Shape" fill="#FFFFFF" fill-rule="evenodd" stroke="none" />
    </g>
  </g>
</svg>